<?xml version="1.0" encoding="utf-8"?>
<!-- Generator: Adobe Illustrator 19.1.1, SVG Export Plug-In . SVG Version: 6.00 Build 0)  -->
<svg version="1.1" id="Layer_1" xmlns="http://www.w3.org/2000/svg" xmlns:xlink="http://www.w3.org/1999/xlink" x="0px" y="0px"
	 viewBox="0 0 66 66" style="enable-background:new 0 0 66 66;" xml:space="preserve">
<g>
	<g>
		<path style="fill:#FF3671;" d="M47.3,46.5c-0.7,0.7-1.9,0.8-2.7,0.1c-4.1-3.6-8.2-5.3-12.3-5.1c-5,0.2-8.9,3.3-10.7,5
			c-0.7,0.7-1.8,0.7-2.6,0.1l-0.1-0.1c-0.9-0.8-1-2.2-0.1-3c2.3-2.2,7-5.8,13.3-6.1c5.3-0.3,10.4,1.8,15.3,6.2
			C48.1,44.3,48.1,45.7,47.3,46.5L47.3,46.5z"/>
	</g>
</g>
<g id="Favorite">
	<g>
		<path style="fill:#FF3671;" d="M32.7,64.3c-17.2,0-31.2-14-31.2-31.2C1.5,15.9,15.5,2,32.7,2c17.2,0,31.2,14,31.2,31.2
			C63.8,50.3,49.9,64.3,32.7,64.3z M32.7,6C17.7,6,5.5,18.1,5.5,33.1s12.2,27.2,27.2,27.2s27.2-12.2,27.2-27.2S47.6,6,32.7,6z"/>
	</g>
	<g>
		<path style="fill:#FF3671;" d="M20.7,30.4c-3.4,0-6.2-2.8-6.2-6.2c0-3.4,2.8-6.2,6.2-6.2s6.2,2.8,6.2,6.2
			C26.8,27.6,24.1,30.4,20.7,30.4z M20.7,22c-1.2,0-2.2,1-2.2,2.2s1,2.2,2.2,2.2s2.2-1,2.2-2.2S21.9,22,20.7,22z"/>
	</g>
	<g>
		<path style="fill:#FF3671;" d="M45.4,30.4c-3.4,0-6.2-2.8-6.2-6.2c0-3.4,2.8-6.2,6.2-6.2c3.4,0,6.2,2.8,6.2,6.2
			C51.5,27.6,48.8,30.4,45.4,30.4z M45.4,22c-1.2,0-2.2,1-2.2,2.2s1,2.2,2.2,2.2s2.2-1,2.2-2.2S46.5,22,45.4,22z"/>
	</g>
</g>
</svg>
