<?xml version="1.0" encoding="utf-8"?>
<!-- Generator: Adobe Illustrator 19.1.1, SVG Export Plug-In . SVG Version: 6.00 Build 0)  -->
<svg version="1.1" id="Layer_1" xmlns="http://www.w3.org/2000/svg" xmlns:xlink="http://www.w3.org/1999/xlink" x="0px" y="0px"
	 viewBox="0 0 66 66" style="enable-background:new 0 0 66 66;" xml:space="preserve">
<g>
	<g>
		<path style="fill:#FF3671;" d="M48,46.5c-0.7,0.7-1.9,0.8-2.7,0.1c-4.1-3.6-8.2-5.3-12.3-5.1c-5,0.2-8.9,3.3-10.7,5
			c-0.7,0.7-1.8,0.7-2.6,0.1l-0.1-0.1c-0.9-0.8-1-2.2-0.1-3c2.3-2.2,7-5.8,13.3-6.1c5.3-0.3,10.4,1.8,15.3,6.2
			C48.8,44.3,48.8,45.7,48,46.5L48,46.5z"/>
	</g>
</g>
<g id="Favorite">
	<g>
		<path style="fill:#FF3671;" d="M33.4,64.3c-17.2,0-31.2-14-31.2-31.2C2.2,15.9,16.2,2,33.4,2c17.2,0,31.2,14,31.2,31.2
			C64.5,50.3,50.6,64.3,33.4,64.3z M33.4,6C18.4,6,6.2,18.2,6.2,33.1s12.2,27.2,27.2,27.2s27.2-12.2,27.2-27.2S48.3,6,33.4,6z"/>
	</g>
	<g>
		<circle style="fill:#FF3671;" cx="21.7" cy="24.2" r="4"/>
	</g>
	<g>
		<circle style="fill:#FF3671;" cx="45.7" cy="24.2" r="4"/>
	</g>
</g>
</svg>
