<?xml version="1.0" encoding="utf-8"?>
<!-- Generator: Adobe Illustrator 19.1.1, SVG Export Plug-In . SVG Version: 6.00 Build 0)  -->
<svg version="1.1" id="Layer_1" xmlns="http://www.w3.org/2000/svg" xmlns:xlink="http://www.w3.org/1999/xlink" x="0px" y="0px"
	 viewBox="0 0 66 66" style="enable-background:new 0 0 66 66;" xml:space="preserve">
<g id="Favorite">
</g>
<g>
	<g>
		<path style="fill:#FF3671;" d="M32.8,64.1c-8.4,0-16.7-3.4-22.7-9.8C-1.2,42.3-0.9,23,10.7,11.2c5.9-5.9,13.7-9.1,22-9.1
			c0,0,0,0,0,0c8.3,0,16.1,3.2,21.9,9.1l0,0c9.1,9.1,11.6,22.6,6.5,34.3c-0.7,1.7-0.9,3.4-0.6,5.1l1.7,7.6c0.3,1.2-0.1,2.5-1,3.4
			c-0.9,0.9-2.2,1.3-3.4,1L50.1,61c-1.6-0.3-3.3-0.2-4.8,0.5C41.2,63.3,37,64.1,32.8,64.1z M32.7,6.1C32.7,6.1,32.7,6.1,32.7,6.1
			c-7.3,0-14.1,2.8-19.2,8C3.4,24.3,3.2,41.1,13,51.6c7.8,8.3,20.1,10.8,30.6,6.2c2.4-1,4.9-1.3,7.3-0.8l7.3,1.6l-1.6-7.2
			c-0.5-2.5-0.3-5.1,0.8-7.5c4.5-10.3,2.3-22-5.7-29.9C46.7,8.9,39.9,6.1,32.7,6.1z"/>
	</g>
	<g>
		<path style="fill:#FF3671;" d="M32.7,47.2c-0.5,0-1-0.1-1.4-0.4c-8.7-5.3-13.1-10.3-13.6-15.2l0-0.2l0-1.5
			c0.4-4.8,4.2-7.6,7.7-7.9c3.6-0.3,5.7,0.7,7.3,2c1.6-1.3,3.7-2.3,7.3-2c3.5,0.3,7.2,3.1,7.7,7.9l0,0.2l0,1.5
			c-0.5,4.9-4.9,9.9-13.6,15.2C33.6,47.1,33.2,47.2,32.7,47.2z M21.6,31.4c0.4,3.4,4.1,7.3,11,11.7c7-4.3,10.7-8.3,11-11.7v-1.1
			c-0.3-2.7-2.3-4-4-4.2l0,0c-0.4,0-0.7,0-1,0c-2.1,0-3,0.6-4.5,2.1l-0.6,0.6l-0.9,0c-0.6,0-1.1-0.2-1.5-0.6
			c-1.4-1.5-2.4-2.1-4.5-2.1c-0.3,0-0.6,0-1,0c-1.8,0.1-3.8,1.5-4,4.2V31.4z"/>
	</g>
</g>
</svg>
