<?xml version="1.0" encoding="utf-8"?>
<!-- Generator: Adobe Illustrator 19.1.1, SVG Export Plug-In . SVG Version: 6.00 Build 0)  -->
<svg version="1.1" id="Layer_1" xmlns="http://www.w3.org/2000/svg" xmlns:xlink="http://www.w3.org/1999/xlink" x="0px" y="0px"
	 viewBox="0 0 66 58" style="enable-background:new 0 0 66 58;" xml:space="preserve">
<g id="Favorite">
	<path style="fill:#B2F9D5;" d="M62.4,18.8v2.9c-0.9,9.4-10.8,20-29.5,31.4C14.3,41.6,4.4,31.1,3.4,21.7v-2.9
		c0.8-8.1,6.9-12.3,12.3-12.7c0.9-0.1,1.8-0.1,2.7-0.1c6.6,0,9.6,2.5,13,6l1.5,1.5l1.5-1.5c3.5-3.5,6.4-6,13-6c0.9,0,1.8,0,2.7,0.1
		h0C55.5,6.5,61.6,10.7,62.4,18.8z"/>
	<path style="fill:#15BC74;" d="M49.4,17.3L49.4,17.3c-0.8-0.8-2-0.8-2.7,0L31.6,32.4c-0.4,0.4-1,0.4-1.3,0l-7-7.2
		c-0.7-0.8-2-0.8-2.7,0l0,0c-0.8,0.7-0.8,2,0,2.7l8.8,9c0.9,0.9,2.4,0.9,3.3,0L49.4,20C50.2,19.3,50.2,18.1,49.4,17.3z"/>
	<path style="fill:#15BC74;" d="M64.9,18.8l0,0.2l0,3.1c-1,10.6-11.1,21.6-31,33.6l-1,0.6l-1-0.6c-19.9-12-30-22.9-31-33.6l0-0.2
		l0-3.1C1.9,8.8,9.5,3.6,16.3,3.1c1-0.1,1.9-0.1,2.9-0.1c6.8,0,10.5,2.4,13.8,5.5c3.3-3.1,7-5.5,13.8-5.5c1,0,1.9,0,2.9,0.1
		C56.3,3.6,64,8.8,64.9,18.8z M60.9,21.9v-2.8c-0.8-7.7-6.6-11.6-11.7-12.1h0c-0.9-0.1-1.7-0.1-2.6-0.1c-6.3,0-9.1,2.4-12.3,5.7
		l-1.4,1.5l-1.4-1.5c-3.3-3.4-6.1-5.7-12.4-5.7c-0.8,0-1.7,0-2.5,0.1C11.5,7.5,5.7,11.4,4.9,19.1v2.8c0.9,8.9,10.3,18.9,28,29.8
		C50.6,40.8,60.1,30.8,60.9,21.9z"/>
</g>
</svg>
