<?xml version="1.0" encoding="utf-8"?>
<!-- Generator: Adobe Illustrator 19.1.1, SVG Export Plug-In . SVG Version: 6.00 Build 0)  -->
<svg version="1.1" id="Layer_1" xmlns="http://www.w3.org/2000/svg" xmlns:xlink="http://www.w3.org/1999/xlink" x="0px" y="0px"
	 viewBox="0 0 66 58" style="enable-background:new 0 0 66 58;" xml:space="preserve">
<g id="Favorite">
	<path style="fill:#FF3671;" d="M64.9,18.8c-1-10-8.6-15.2-15.3-15.8c-1-0.1-1.9-0.1-2.9-0.1c-6.8,0-10.5,2.4-13.8,5.5
		c-3.3-3.1-7-5.5-13.8-5.5c-1,0-1.9,0-2.9,0.1C9.6,3.6,1.9,8.8,1,18.8l0,3.1l0,0.2c1,10.6,11.1,21.6,31,33.6l1,0.6l1-0.6
		c19.9-12,30-22.9,31-33.5l0-3.1L64.9,18.8z"/>
	<path style="fill:#FFFFFF;" d="M35.9,28.7l7.3-7.3c0.8-0.8,0.8-2.2,0-3.1s-2.2-0.8-3.1,0l-7.3,7.3l-7.3-7.3c-0.8-0.8-2.2-0.8-3.1,0
		s-0.8,2.2,0,3.1l7.3,7.3L22.5,36c-0.8,0.8-0.8,2.2,0,3.1s2.2,0.8,3.1,0l7.3-7.3l7.3,7.3c0.4,0.4,1,0.6,1.5,0.6s1.1-0.2,1.5-0.6
		c0.8-0.8,0.8-2.2,0-3.1L35.9,28.7z"/>
</g>
</svg>
