<?xml version="1.0" encoding="utf-8"?>
<!-- Generator: Adobe Illustrator 19.1.1, SVG Export Plug-In . SVG Version: 6.00 Build 0)  -->
<svg version="1.1" id="Layer_1" xmlns="http://www.w3.org/2000/svg" xmlns:xlink="http://www.w3.org/1999/xlink" x="0px" y="0px"
	 viewBox="0 0 66 66" style="enable-background:new 0 0 66 66;" xml:space="preserve">
<g id="Favorite">
	<circle style="fill:#FFE3EE;" cx="33.3" cy="33.1" r="30.6"/>
	<path style="fill:#FF3671;" d="M33.3,65.8c-18,0-32.6-14.6-32.6-32.6S15.3,0.5,33.3,0.5s32.6,14.6,32.6,32.6S51.3,65.8,33.3,65.8z
		 M33.3,4.5C17.5,4.5,4.7,17.3,4.7,33.1s12.8,28.6,28.6,28.6s28.6-12.8,28.6-28.6S49.1,4.5,33.3,4.5z"/>
	<path style="fill:#FF3671;" d="M46.2,42.9l-9.8-9.8l9.8-9.8c0.9-0.9,0.9-2.3,0-3.2c-0.9-0.9-2.3-0.9-3.2,0L33.3,30l-9.8-9.8
		c-0.9-0.9-2.3-0.9-3.2,0c-0.9,0.9-0.9,2.3,0,3.2l9.8,9.8l-9.8,9.8c-0.9,0.9-0.9,2.3,0,3.2c0.9,0.9,2.3,0.9,3.2,0l9.8-9.8L43,46
		c0.4,0.4,1,0.7,1.6,0.7s1.1-0.2,1.6-0.7C47.1,45.2,47.1,43.8,46.2,42.9z"/>
</g>
</svg>
