<?xml version="1.0" encoding="utf-8"?>
<!-- Generator: Adobe Illustrator 19.1.1, SVG Export Plug-In . SVG Version: 6.00 Build 0)  -->
<svg version="1.1" id="Layer_1" xmlns="http://www.w3.org/2000/svg" xmlns:xlink="http://www.w3.org/1999/xlink" x="0px" y="0px"
	 viewBox="0 0 66 58" style="enable-background:new 0 0 66 58;" xml:space="preserve">
<g id="Favorite">
	<path style="fill:#FF3671;" d="M35.9,28.7l7.3-7.3c0.8-0.8,0.8-2.2,0-3.1s-2.2-0.8-3.1,0l-7.3,7.3l-7.3-7.3c-0.8-0.8-2.2-0.8-3.1,0
		s-0.8,2.2,0,3.1l7.3,7.3L22.5,36c-0.8,0.8-0.8,2.2,0,3.1s2.2,0.8,3.1,0l7.3-7.3l7.3,7.3c0.4,0.4,1,0.6,1.5,0.6s1.1-0.2,1.5-0.6
		c0.8-0.8,0.8-2.2,0-3.1L35.9,28.7z"/>
	<g>
		<path style="fill:#BDC8D1;" d="M32.9,56.3l-1-0.6c-19.9-12-30-22.9-31-33.5l0-0.2l0-3.1C1.9,8.8,9.5,3.6,16.3,3.1
			c1-0.1,1.9-0.1,2.9-0.1c6.8,0,10.5,2.4,13.8,5.5c3.3-3.1,7-5.5,13.8-5.5c1,0,1.9,0,2.9,0.1C56.3,3.6,64,8.8,64.9,18.8l0,0.2l0,3.1
			c-1,10.6-11.1,21.6-31,33.5L32.9,56.3z M4.9,21.9c0.9,8.9,10.3,18.9,28,29.8c17.7-10.8,27.1-20.8,28-29.8v-2.8
			c-0.8-7.7-6.6-11.6-11.7-12.1l0,0c-0.9-0.1-1.7-0.1-2.5-0.1c-6.3,0-9.1,2.4-12.3,5.7l-1.4,1.5l-1.4-1.5c-3.3-3.4-6.1-5.7-12.4-5.7
			c-0.8,0-1.7,0-2.5,0.1C11.5,7.5,5.7,11.4,4.9,19.1V21.9z"/>
	</g>
</g>
</svg>
