<?xml version="1.0" encoding="utf-8"?>
<!-- Generator: Adobe Illustrator 19.1.1, SVG Export Plug-In . SVG Version: 6.00 Build 0)  -->
<svg version="1.1" id="Layer_1" xmlns="http://www.w3.org/2000/svg" xmlns:xlink="http://www.w3.org/1999/xlink" x="0px" y="0px"
	 viewBox="0 0 66 66" style="enable-background:new 0 0 66 66;" xml:space="preserve">
<g id="Favorite">
	<path style="fill:#FF3671;" d="M36.4,32.6c-3.4-0.3-5.4,0.6-6.9,1.8c-1.5-1.2-3.5-2.1-6.9-1.8c-3.3,0.3-6.9,2.9-7.3,7.5l0,1.4
		l0,0.2c0.4,4.7,4.7,9.5,13.2,14.6l1,0.6l1-0.6c8.4-5.1,12.7-9.8,13.2-14.6l0-1.4l0-0.2C43.3,35.5,39.7,32.8,36.4,32.6z M39.7,41.3
		c-0.3,3.1-3.9,6.8-10.2,10.8c-6.4-4-9.9-7.7-10.2-10.8v-1c0.3-2.8,2.5-3.7,3.7-3.8c0.3,0,0.6,0,0.9,0c2,0,2.9,0.6,4.2,2l1.4,1.5
		l1.4-1.5c1.3-1.3,2.2-2,4.2-2c0.3,0,0.6,0,0.9,0l0,0c1.1,0.1,3.4,1,3.7,3.8V41.3z"/>
	<path style="fill:#FF3671;" d="M63.5,34.7c-0.8-1.1-2-1.7-3.4-1.7h-5v-9.2H3.8V41c0,7.9,3.8,14.9,9.7,19.3l-6.3-0.9l-0.6,4l7.3,1
		c5.2,0.7,10.3,1.1,15.5,1.1c5.1,0,10.3-0.4,15.4-1.1l7.5-1.1l-0.6-4l-6.3,0.9c2.6-2,4.9-4.5,6.5-7.4h4.6c1.8,0,3.4-1.2,4-2.9
		l3.6-11.5C64.5,37.2,64.3,35.8,63.5,34.7z M31,61.2h-3c-11.1,0-20.2-9-20.2-20.2V27.8h43.3V41C51.1,52.1,42.1,61.2,31,61.2z
		 M60.3,37.3l-3.6,11.5c0,0.1-0.1,0.1-0.2,0.1h-2.8c0.9-2.5,1.3-5.1,1.3-7.9v-4h5c0,0,0.1,0,0.1,0.1S60.3,37.2,60.3,37.3z"/>
	<g>
		<path style="fill:#FF3671;" d="M42.9,20.2c-0.8,0.7-1.9,0.6-2.7-0.1c-2.8-2.6-6.5-4.1-10.4-4.1c-3.8,0-7.5,1.4-10.2,4
			c-0.8,0.7-1.9,0.8-2.7,0.1l0,0c-0.9-0.8-0.9-2.2,0-3c3.5-3.2,8.1-5,12.9-5c4.9,0,9.6,1.9,13.1,5.2C43.9,18,43.8,19.4,42.9,20.2
			L42.9,20.2z"/>
	</g>
	<g>
		<path style="fill:#FF3671;" d="M50.9,13.8c-0.9,0.6-2,0.4-2.6-0.4c-3.8-4.5-10.8-7.3-18.3-7.3c-7.4,0-14.3,2.8-18.2,7.2
			c-0.7,0.8-1.8,1-2.7,0.4l0,0c-1-0.7-1.2-2-0.4-2.9c4.6-5.4,12.5-8.6,21.2-8.6c8.8,0,16.8,3.3,21.4,8.8
			C52.1,11.8,51.9,13.1,50.9,13.8L50.9,13.8z"/>
	</g>
</g>
</svg>
