<?xml version="1.0" encoding="utf-8"?>
<!-- Generator: Adobe Illustrator 19.1.1, SVG Export Plug-In . SVG Version: 6.00 Build 0)  -->
<svg version="1.1" id="Layer_1" xmlns="http://www.w3.org/2000/svg" xmlns:xlink="http://www.w3.org/1999/xlink" x="0px" y="0px"
	 viewBox="0 0 98 73" style="enable-background:new 0 0 98 73;" xml:space="preserve">
<g id="Favorite">
</g>
<path style="fill:#FF3671;" d="M96.6,71l-0.2-8.2c-0.2-8-4.1-15.3-10.4-19.8c6.3-1.8,8.9-4.6,9-4.8l1.3-1.5l-1.5-1.3
	c-5.3-4.6-10-14.6-10-14.7l0,0c-2.5-5.3-7.9-8.9-14.1-8.9c-6.3,0-11.8,3.8-14.2,9.2l-0.1-0.1c0,0.1-4.7,10.1-10,14.7L44.8,37
	l1.3,1.5c0.1,0.2,2.7,3,8.9,4.7c-2.3,1.7-4.3,3.8-5.8,6.2c-2.2-3.3-5.2-6.1-8.8-8c1.8-2.5,2.9-5.5,2.9-8.8l0-5.5l0-0.1
	c-0.2-8.5-7.1-15.2-15.6-15.2c-8.6,0-15.6,7-15.6,15.6c0,0.2,0,5.1,0,5.1c0,3.3,1.1,6.3,2.9,8.8C7.1,45.5,2,53.7,1.8,62.8L1.6,71
	l2.3,0v0.2h92.2V71L96.6,71z M59.1,32.5c0,0,0-0.8,0-1.7c0.9,0.2,1.8,0.2,2.7,0.2c4.2,0,7.7-1.7,9.3-3.3c0.6-0.6,1.2-1.3,1.6-2
	c2.5,1.7,6,3.2,9.6,2.4l0,4.3c0,6-4.9,10.9-10.9,10.9H70C64,43.5,59.1,38.6,59.1,32.5z M84.8,39.2c1-2,1.6-4.3,1.6-6.7l0-1.1
	c1.3,1.9,2.7,3.8,4.2,5.4C89.4,37.5,87.5,38.5,84.8,39.2z M70.7,15.8c5.3,0,9.7,3.5,11.1,8.3c-3.1,0.8-6.1-1-7.9-2.4
	c0-0.6,0-1.2-0.1-1.8c-0.1-0.4-0.2-1-0.7-1.5c-0.7-0.7-1.7-0.9-2.7-0.6c-1,0.4-1.8,1.3-1.9,2.4c-0.1,1.3,0.6,2.2,1,2.7
	c-0.3,0.7-0.7,1.3-1.3,1.9c-1.1,1.1-4.8,2.9-9.2,1.8C59.5,20.7,64.5,15.8,70.7,15.8z M55.1,31.3c0,0.7,0,1.2,0,1.2
	c0,2.5,0.6,4.9,1.8,7c-3-0.7-5-1.8-6.2-2.5C52.3,35.3,53.8,33.3,55.1,31.3z M60.9,44.4c2.5,1.9,5.7,3.1,9.1,3.1h1.4
	c3.4,0,6.6-1.2,9.1-3.1c7.1,3.3,11.8,10.5,12,18.5l0.1,4.3H53.4l-0.1-4.4c-0.1-3.3-0.8-6.4-2-9.3C53.4,49.5,56.8,46.3,60.9,44.4z
	 M16,32.5c0,0,0-1.6,0-3c0.4,0,0.9,0.1,1.4,0.1c3.1,0,7.1-0.9,9.7-4.1c2.9,1.9,6.8,3.6,12.1,4.4l0,2.8c0,6-4.9,10.9-10.9,10.9h-1.4
	C20.9,43.5,16,38.6,16,32.5z M39.1,25.7c-9.8-1.6-13.6-6.6-14.9-9.3c1.1-0.3,2.2-0.5,3.4-0.5C33.4,15.8,38.2,20,39.1,25.7z
	 M20.6,18.2c0.7,1.3,1.7,3,3.4,4.7c-2.2,2.8-6.2,2.8-7.8,2.6C16.7,22.5,18.3,19.9,20.6,18.2z M17.8,44.4c2.5,1.9,5.7,3.1,9.1,3.1
	h1.4c3.4,0,6.6-1.2,9.1-3.1c7.1,3.3,11.8,10.5,12,18.5l0.1,4.3H5.7l0.1-4.3C6,54.8,10.7,47.7,17.8,44.4z"/>
<path style="fill:#FF3671;" d="M48.3,20.8l1,0.6l1-0.6c6.8-4.1,10.3-8,10.7-11.9l0-1.1l0-0.2c-0.4-3.8-3.4-6.1-6.2-6.3
	c-0.4,0-0.7,0-1.1,0c-2,0-3.3,0.5-4.5,1.4c-1.2-0.9-2.5-1.4-4.5-1.4c-0.3,0-0.7,0-1,0C41,1.5,38,3.7,37.6,7.6l0,1.1l0,0.2
	C38,12.8,41.5,16.7,48.3,20.8z M41.7,7.9c0.2-1.9,1.7-2.6,2.5-2.6c0.2,0,0.5,0,0.7,0c1.4,0,2,0.4,2.9,1.3c0.9,0.9,2.3,0.9,3.1,0
	c0.9-0.9,1.5-1.3,2.9-1.3c0.2,0,0.5,0,0.7,0l0,0C55.3,5.3,56.8,6,57,7.9v0.7c-0.2,1.6-1.7,4.3-7.7,8.1c-6-3.8-7.5-6.5-7.7-8.1V7.9z"
	/>
</svg>
