<?xml version="1.0" encoding="utf-8"?>
<!-- Generator: Adobe Illustrator 19.1.1, SVG Export Plug-In . SVG Version: 6.00 Build 0)  -->
<svg version="1.1" id="Layer_1" xmlns="http://www.w3.org/2000/svg" xmlns:xlink="http://www.w3.org/1999/xlink" x="0px" y="0px"
	 viewBox="0 0 106.8 64.7" style="enable-background:new 0 0 106.8 64.7;" xml:space="preserve">
<path style="fill:none;stroke:#FF3671;stroke-width:3.9803;stroke-miterlimit:10;" d="M60.1,39.9c-0.4,0-0.8-0.1-1.2-0.1
	c-2.9,0-4.4,1.1-6,2.7c0,0-0.1,0-0.2,0c-1.6-1.6-3.1-2.7-6-2.7c-0.4,0-0.8,0-1.2,0.1c-2.6,0.2-5.6,2.3-6,6.2v1.3
	c0.3,3.7,3.5,8.2,12.9,13.9c0.2,0.1,0.6,0.1,0.8,0C62.5,55.6,65.7,51,66,47.4v-1.3C65.7,42.1,62.7,40.1,60.1,39.9z"/>
<g>
	<g>
		<path style="fill:#FF3671;" d="M41,18.9c-18.5-1.8-21.2-14-21.3-14.5l3.9-0.8C23.7,4,26,13.5,41.4,14.9L41,18.9z"/>
	</g>
	<g>
		<path style="fill:#FF3671;" d="M17.6,18.5c-1.1,0-2-0.1-2.8-0.3l0.8-3.9c0.3,0.1,7.4,1.4,9.5-4.2l3.7,1.4
			C26.7,17,21.5,18.5,17.6,18.5z"/>
	</g>
	<g>
		<g>
			<path style="fill:#FF3671;" d="M28.4,36.2H27c-8.2,0-14.8-6.6-14.8-14.8l0,0c0,0,0-4.8,0-5c0-8.6,7-15.5,15.5-15.5
				c8.4,0,15.2,6.6,15.5,15.1l0,0.1l0,5.4C43.2,29.6,36.6,36.2,28.4,36.2z M27.7,4.9c-6.4,0-11.5,5.2-11.5,11.5c0,0.2,0,5,0,5
				c0,6,4.9,10.8,10.8,10.8h1.4c6,0,10.8-4.9,10.8-10.8l0-5.4C39,9.8,34,4.9,27.7,4.9z"/>
		</g>
	</g>
	<g>
		<g>
			<g>
				<path style="fill:#FF3671;" d="M6,59.6l-4-0.1l0.2-8.1c0.2-9.9,6.2-18.7,15.2-22.3l0.2-0.1l1.5,3.7l-0.1,0.1
					C11.3,35.9,6.3,43.2,6.1,51.5L6,59.6z"/>
			</g>
		</g>
		<g>
			<g>
				<path style="fill:#FF3671;" d="M50.7,41c-2.6-5.3-7-9.6-12.6-11.9L37.9,29l-1.5,3.7l0.1,0.1c3.5,1.4,6.5,3.8,8.7,6.8
					C46.9,39.7,48.9,40.6,50.7,41z"/>
			</g>
		</g>
	</g>
</g>
<g>
	<g>
		<g>
			<path style="fill:#FF3671;" d="M79.1,36.2h-1.4c-8.2,0-14.8-6.6-14.8-14.8l0,0c0,0,0-4.8,0-5c0-8.6,7-15.5,15.5-15.5
				c8.4,0,15.2,6.6,15.5,15.1l0,0.1l0,5.4C94,29.6,87.3,36.2,79.1,36.2z M78.5,4.9c-6.4,0-11.5,5.2-11.5,11.5c0,0.2,0,5,0,5
				c0,6,4.9,10.8,10.8,10.8h1.4c6,0,10.8-4.9,10.8-10.8l0-5.4C89.8,9.8,84.7,4.9,78.5,4.9z"/>
		</g>
	</g>
	<g>
		<g>
			<g>
				<path style="fill:#FF3671;" d="M68.2,29l-0.2,0.1c-5.2,2.1-9.3,5.9-12,10.6c0.2-0.1,0.5-0.2,0.7-0.2c1.2-0.2,2.4,0,3.6,0.1
					c0.1,0,0.3,0,0.4,0.1c2.2-3,5.2-5.4,8.7-6.9l0.1-0.1L68.2,29z"/>
			</g>
		</g>
		<g>
			<g>
				<path style="fill:#FF3671;" d="M100.2,59.6l-0.2-8.1c-0.2-8.3-5.2-15.7-12.7-18.7l-0.1-0.1l1.5-3.7l0.2,0.1
					c9,3.7,15,12.4,15.2,22.3l0.2,8.1L100.2,59.6z"/>
			</g>
		</g>
	</g>
	<g>
		<g>
			<path style="fill:#FF3671;" d="M68.7,33.2c-10.5-1.1-14.5-5.6-14.6-5.8l-1.3-1.5l1.5-1.3C59.6,20,64.2,10,64.2,9.9l3.6,1.7
				c-0.2,0.4-4.1,8.9-9.2,14.3c1.7,1.1,5.1,2.7,10.6,3.3L68.7,33.2z"/>
		</g>
	</g>
	<g>
		<g>
			<path style="fill:#FF3671;" d="M88,32.9l-0.4-4c5.5-0.6,8.8-2.2,10.6-3.3c-5.1-5.4-9.1-13.9-9.2-14.3l3.6-1.7
				c0,0.1,4.7,10,9.9,14.6l1.5,1.3l-1.3,1.5C102.5,27.3,98.5,31.8,88,32.9z"/>
		</g>
	</g>
	<g>
		<g>
			<path style="fill:#FF3671;" d="M69.6,20c-1.4,0-2.9-0.2-4.5-0.7l1.2-3.8c4.6,1.4,8.6-0.5,9.8-1.6c0.6-0.6,1-1.2,1.3-1.9
				c-0.4-0.5-1.1-1.4-1-2.7c0.1-1.1,0.8-2,1.8-2.4c0.9-0.3,2-0.1,2.6,0.6C81.3,8,81.4,8.6,81.5,9c0.1,0.6,0.2,1.2,0.1,1.7
				c2.1,1.7,6.1,4,9.7,1.5l2.3,3.3c-4.9,3.4-10,1.5-13.3-0.7c-0.4,0.7-1,1.4-1.6,2C77.2,18.3,73.8,20,69.6,20z"/>
		</g>
	</g>
</g>
<g id="Favorite">
</g>
</svg>
