<?xml version="1.0" encoding="utf-8"?>
<!-- Generator: Adobe Illustrator 19.1.1, SVG Export Plug-In . SVG Version: 6.00 Build 0)  -->
<svg version="1.1" id="Layer_1" xmlns="http://www.w3.org/2000/svg" xmlns:xlink="http://www.w3.org/1999/xlink" x="0px" y="0px"
	 viewBox="0 0 100 63" style="enable-background:new 0 0 100 63;" xml:space="preserve">
<g>
	<path style="fill:#FF3671;" d="M78.8,41c-0.4,0-0.7,0-1.1,0c-2,0-3.3,0.5-4.5,1.4C72,41.5,70.7,41,68.7,41c-0.3,0-0.7,0-1.1,0
		c-2.8,0.2-5.9,2.5-6.3,6.4l0,1.2l0,0.2c0.4,4,3.9,7.9,10.8,12.1l1.1,0.6l1-0.6c6.9-4.2,10.5-8.1,10.8-12.1l0-1.2l0-0.2
		C84.7,43.6,81.6,41.3,78.8,41z M81,48.5c-0.2,1.7-1.8,4.4-7.8,8.2c-6.1-3.8-7.6-6.6-7.8-8.2v-0.8c0.2-1.9,1.8-2.6,2.6-2.7
		c0.3,0,0.5,0,0.7,0c1.4,0,2,0.4,2.9,1.3c0.9,0.9,2.3,0.9,3.2,0c0.9-0.9,1.5-1.3,2.9-1.3c0.2,0,0.5,0,0.7,0l0,0
		c0.8,0.1,2.3,0.7,2.6,2.7V48.5z"/>
	<path style="fill:#FF3671;" d="M33.6,41c-0.4,0-0.7,0-1.1,0c-2,0-3.3,0.5-4.5,1.4c-1.2-0.9-2.5-1.4-4.5-1.4c-0.3,0-0.7,0-1.1,0
		c-2.8,0.2-5.9,2.5-6.3,6.4l0,1.2l0,0.2c0.4,4,3.9,7.9,10.8,12.1l1.1,0.6l1-0.6c6.9-4.2,10.5-8.1,10.8-12.1l0-1.2l0-0.2
		C39.5,43.6,36.4,41.3,33.6,41z M35.8,48.5c-0.2,1.7-1.8,4.4-7.8,8.2c-6.1-3.8-7.6-6.6-7.8-8.2v-0.8c0.2-1.9,1.8-2.6,2.6-2.7
		c0.3,0,0.5,0,0.7,0c1.4,0,2,0.4,2.9,1.3c0.9,0.9,2.3,0.9,3.2,0c0.9-0.9,1.5-1.3,2.9-1.3c0.2,0,0.5,0,0.7,0l0,0
		c0.8,0.1,2.3,0.7,2.6,2.7V48.5z"/>
	<path style="fill:#FF3671;" d="M98.3,53.6c-0.2-8.1-4.2-15.5-10.5-20.1c6.4-1.8,9-4.7,9.1-4.8l1.3-1.5l-1.5-1.3
		C91.3,21.2,86.5,11,86.5,10.9l0,0c-2.5-5.4-8-9-14.3-9c-6.4,0-11.9,3.8-14.4,9.3l-0.1-0.1c0,0.1-4.8,10.3-10.2,14.9l-1.5,1.3
		l1.3,1.5c0.1,0.2,2.7,3,9,4.8c-2.5,1.9-4.6,4.2-6.3,6.8c-2.3-3.6-5.5-6.6-9.3-8.7c1.8-2.5,3-5.6,3-9l0-5.6l0-0.1
		C43.3,8.6,36.4,1.9,27.7,1.9C19,1.9,11.9,9,11.9,17.7c0,0.2,0,5.2,0,5.2c0,3.3,1.1,6.4,2.9,8.9C6.9,36.1,1.8,44.3,1.6,53.6
		l-0.2,8.3L5.5,62l0.2-8.3c0.2-8.2,4.9-15.5,12.2-18.8c2.6,2,5.7,3.2,9.2,3.2h1.4c3.5,0,6.7-1.2,9.2-3.1c7.2,3.3,12,10.6,12.1,18.8
		L50,62l4.1-0.1l-0.2-8.3c-0.1-3-0.7-6-1.7-8.7c2.1-4.4,5.6-8,10.1-10c2.6,2,5.8,3.2,9.2,3.2h1.4c3.5,0,6.7-1.2,9.2-3.1
		c7.2,3.3,12,10.6,12.1,18.8l0.2,8.3l4.1-0.1L98.3,53.6z M39.4,15.9c-9.9-1.6-13.8-6.7-15.1-9.5c1.1-0.3,2.3-0.5,3.5-0.5
		C33.7,5.9,38.5,10.2,39.4,15.9z M20.6,8.3c0.7,1.4,1.8,3.1,3.4,4.7c-2.3,2.9-6.3,2.8-7.9,2.6C16.6,12.7,18.3,10.1,20.6,8.3z
		 M28.4,34h-1.4C20.9,34,16,29,16,22.9c0,0,0-1.6,0-3.1c0.5,0,0.9,0.1,1.4,0.1c3.2,0,7.2-0.9,9.8-4.2c2.9,2,6.9,3.6,12.3,4.4l0,2.8
		C39.5,29,34.5,34,28.4,34z M86.4,29.7c1-2,1.6-4.3,1.6-6.8l0-1.1c1.3,1.9,2.7,3.8,4.3,5.5C91.1,28,89.2,28.9,86.4,29.7z M72.1,5.9
		c5.4,0,9.9,3.5,11.3,8.4c-3.1,0.9-6.2-1-8-2.5c0-0.6,0-1.2-0.1-1.8c-0.1-0.4-0.3-1-0.7-1.5c-0.7-0.7-1.7-0.9-2.7-0.6
		c-1,0.4-1.8,1.4-1.9,2.4c-0.1,1.3,0.6,2.3,1,2.8c-0.3,0.7-0.7,1.3-1.3,1.9c-1.2,1.1-4.9,2.9-9.3,1.9C60.8,10.9,65.9,5.9,72.1,5.9z
		 M56.3,21.7c0,0.7,0,1.2,0,1.2c0,2.6,0.7,5,1.8,7.1c-3-0.8-5-1.8-6.3-2.6C53.5,25.7,55,23.7,56.3,21.7z M72.9,34h-1.4
		c-6.1,0-11.1-5-11.1-11.1c0,0,0-0.8,0-1.7c0.9,0.2,1.8,0.2,2.7,0.2c4.3,0,7.8-1.8,9.4-3.3c0.7-0.6,1.2-1.3,1.7-2.1
		c2.5,1.7,6.1,3.2,9.8,2.4l0,4.4C83.9,29,79,34,72.9,34z"/>
</g>
<g id="Favorite">
</g>
</svg>
