<?xml version="1.0" encoding="utf-8"?>
<!-- Generator: Adobe Illustrator 19.1.1, SVG Export Plug-In . SVG Version: 6.00 Build 0)  -->
<svg version="1.1" id="Layer_1" xmlns="http://www.w3.org/2000/svg" xmlns:xlink="http://www.w3.org/1999/xlink" x="0px" y="0px"
	 viewBox="0 0 66.4 51.8" style="enable-background:new 0 0 66.4 51.8;" xml:space="preserve">
<g id="Favorite">
	<path style="fill:#FF3671;" d="M19.4,2.1h25.8c1.2,0,2.4,0.4,3.3,1.2L63,14.9c2.5,2,2.6,5.7,0.3,7.9L36,48.4
		c-2,1.9-5.2,1.9-7.2-0.1L2.4,22.9c-2.2-2.1-2.1-5.7,0.2-7.7L15.9,3.4C16.9,2.6,18.1,2.1,19.4,2.1z"/>
	<path style="fill:#FFFFFF;" d="M41.7,20.2H35v-6.7c0-1.3-1-2.3-2.3-2.3h0c-1.3,0-2.3,1-2.3,2.3v6.7h-6.7c-1.3,0-2.3,1-2.3,2.3v0
		c0,1.3,1,2.3,2.3,2.3h6.7v6.7c0,1.3,1,2.3,2.3,2.3h0c1.3,0,2.3-1,2.3-2.3v-6.7h6.7c1.3,0,2.3-1,2.3-2.3v0
		C44,21.2,43,20.2,41.7,20.2z"/>
</g>
</svg>
