<?xml version="1.0" encoding="utf-8"?>
<!-- Generator: Adobe Illustrator 19.1.1, SVG Export Plug-In . SVG Version: 6.00 Build 0)  -->
<svg version="1.1" id="Layer_1" xmlns="http://www.w3.org/2000/svg" xmlns:xlink="http://www.w3.org/1999/xlink" x="0px" y="0px"
	 viewBox="0 0 66 66" style="enable-background:new 0 0 66 66;" xml:space="preserve">
<g id="Favorite">
	<path style="fill:#FF3671;stroke:#FF3671;stroke-width:0.3855;stroke-miterlimit:10;" d="M12.2,55.6L3.8,29.7
		c-1.1-3.3-0.2-6.9,2.2-9.4l0.9-1c5.7-5.8,12.3-10.6,19.6-14.3L29,3.8c2.7-1.4,5.9-1.3,8.6,0.1l4.8,2.6c6.8,3.6,13,8.3,18.3,13.9
		l0,0c2.4,2.5,3.2,6.1,2.2,9.4l-8.4,26c-1.1,3.4-4,5.8-7.5,6.3l-2.5,0.4c-7.1,1.1-14.4,1.1-21.6,0.1l-3.2-0.5
		C16.2,61.4,13.3,59,12.2,55.6z"/>
	<g>
		<path style="fill:#FFFFFF;" d="M24.4,29.9c0.1-5.8,3.5-9.2,9.2-9.2c5.4,0,8.7,2.5,8.7,7c0,6.2-6.2,6.9-6.2,11.7h-5.2
			c0-6.3,5-6.6,5-10.6c0-1.8-1.1-2.6-2.9-2.6c-2,0-3.2,1.2-3.2,3.7L24.4,29.9z M36.8,46.1c0,2-1.4,3.4-3.4,3.4c-2,0-3.4-1.4-3.4-3.4
			c0-2,1.4-3.4,3.4-3.4C35.4,42.8,36.8,44.1,36.8,46.1z"/>
	</g>
</g>
</svg>
