<?xml version="1.0" encoding="utf-8"?>
<!-- Generator: Adobe Illustrator 19.1.1, SVG Export Plug-In . SVG Version: 6.00 Build 0)  -->
<svg version="1.1" id="Layer_1" xmlns="http://www.w3.org/2000/svg" xmlns:xlink="http://www.w3.org/1999/xlink" x="0px" y="0px"
	 viewBox="0 0 66 66" style="enable-background:new 0 0 66 66;" xml:space="preserve">
<g id="Favorite">
	<path style="fill:#FF3671;" d="M42.3,17.1c-0.3,0-0.6,0-0.9,0c-2.2,0-3.2,0.8-4.4,2c-1.2-1.2-2.2-2-4.4-2c-0.3,0-0.6,0-0.9,0
		c-1.9,0.2-4,1.6-4.3,4.4v0.9c0.2,2.7,2.6,6,9.5,10.2c6.9-4.2,9.3-7.5,9.5-10.2v-0.9C46.3,18.8,44.1,17.3,42.3,17.1z"/>
	<path style="fill:#FF3671;" d="M63.8,8.2c-1.2-1.5-3-2.3-4.9-2.3L3.5,5.9c-1.2,0-2.2,0.9-2.2,2v0.1c0,1.1,1,2,2.2,2h7.2
		c-0.3,0.7-0.5,1.5-0.5,2.3v0.6h-0.1v38.2h0c0.1,1.1,1,1.9,2.1,1.9h37c1.2,0,2.2-1,2.2-2.2c0-1.2-1-2.2-2.2-2.2H14.2v-6.8
		c0.7,0.3,1.5,0.5,2.4,0.5h37.5c3,0,5.6-2.1,6.2-5l4.8-23.7C65.5,11.6,65.1,9.7,63.8,8.2z M61.2,12.7l-4.8,23.7
		c-0.2,1.1-1.2,1.9-2.3,1.9H16.6c-1.3,0-2.3-1-2.3-2.3V12.2c0-1.3,1-2.3,2.3-2.3H59c0.7,0,1.4,0.3,1.8,0.9
		C61.2,11.3,61.4,12,61.2,12.7z"/>
	<circle style="fill:#FF3671;" cx="20.7" cy="59.8" r="3.1"/>
	<circle style="fill:#FF3671;" cx="39.5" cy="59.8" r="3.1"/>
</g>
</svg>
