<?xml version="1.0" encoding="utf-8"?>
<!-- Generator: Adobe Illustrator 19.1.1, SVG Export Plug-In . SVG Version: 6.00 Build 0)  -->
<svg version="1.1" id="Layer_1" xmlns="http://www.w3.org/2000/svg" xmlns:xlink="http://www.w3.org/1999/xlink" x="0px" y="0px"
	 viewBox="0 0 47.5 66" style="enable-background:new 0 0 47.5 66;" xml:space="preserve">
<g id="Favorite">
	<g>
		<g>
			<path style="fill:#FF3671;" d="M17.6,23.4c0.1-4.3,2.6-6.8,6.8-6.8c4,0,6.4,1.9,6.4,5.2c0,4.5-4.6,5.1-4.6,8.7h-3.9
				c0-4.6,3.7-4.9,3.7-7.8c0-1.3-0.8-1.9-2.2-1.9c-1.5,0-2.3,0.9-2.4,2.7L17.6,23.4z M26.8,35.3c0,1.5-1,2.5-2.5,2.5
				c-1.5,0-2.5-1-2.5-2.5c0-1.5,1-2.5,2.5-2.5C25.7,32.8,26.8,33.9,26.8,35.3z"/>
			<path style="fill:#FF3671;" d="M24.3,38.1c-1.6,0-2.8-1.1-2.8-2.8c0-1.6,1.1-2.8,2.8-2.8c1.6,0,2.8,1.2,2.8,2.8
				C27.1,37,25.9,38.1,24.3,38.1z M24.3,33.1c-1.3,0-2.2,0.9-2.2,2.2c0,1.3,0.9,2.2,2.2,2.2c1.3,0,2.2-0.9,2.2-2.2
				C26.5,34,25.6,33.1,24.3,33.1z M26.6,30.7h-4.4v-0.3c0-2.7,1.2-3.9,2.2-5.1c0.8-0.8,1.5-1.6,1.5-2.8c0-1.1-0.6-1.7-1.9-1.7
				c-1.4,0-2.1,0.8-2.1,2.4l0,0.3l-4.5,0l0-0.3c0.1-4.4,2.7-7.1,7.1-7.1c4.2,0,6.7,2,6.7,5.5c0,2.5-1.4,3.9-2.6,5.1
				c-1.1,1.1-2,2-2,3.6V30.7z M22.7,30.2H26c0.1-1.6,1.1-2.7,2.2-3.7c1.2-1.2,2.4-2.4,2.4-4.7c0-3.1-2.2-4.9-6.1-4.9
				c-4,0-6.4,2.3-6.5,6.2l3.4,0c0.1-2.2,1.5-2.7,2.6-2.7c1.6,0,2.4,0.8,2.4,2.2c0,1.4-0.8,2.3-1.6,3.1
				C23.8,26.8,22.8,27.9,22.7,30.2z"/>
		</g>
	</g>
	<g>
		<path style="fill:#FF3671;" d="M31.7,53.1H15.5c-1.2,0-2.2-0.9-2.4-2.1c-0.7-5.9-2.8-11.2-6-15.4c-3.2-4.2-4.7-9.4-4.3-14.7
			C3.7,10.8,11.4,3,21.4,1.9c6-0.6,11.9,1.3,16.4,5.2c4.4,4,7,9.7,7,15.6c0,4.5-1.4,8.7-4,12.3C37.2,40,35,45.2,34.4,50.6
			C34.3,52,33.1,53.1,31.7,53.1z M16.9,49.1h13.7c0.9-5.7,3.2-11.2,6.9-16.3c2.1-2.9,3.2-6.4,3.2-10c0-4.8-2.1-9.4-5.6-12.7
			c-3.6-3.3-8.3-4.8-13.3-4.2c-8.1,0.9-14.3,7.2-15,15.4c-0.4,4.3,0.9,8.5,3.5,11.9C13.7,37.6,16,43.1,16.9,49.1z"/>
	</g>
	<g>
		<path style="fill:#FF3671;" d="M32.4,62.3h-17c-1.1,0-2-0.9-2-2v0c0-1.1,0.9-2,2-2h17c1.1,0,2,0.9,2,2v0
			C34.4,61.4,33.5,62.3,32.4,62.3z"/>
	</g>
</g>
</svg>
