<?xml version="1.0" encoding="utf-8"?>
<!-- Generator: Adobe Illustrator 19.1.1, SVG Export Plug-In . SVG Version: 6.00 Build 0)  -->
<svg version="1.1" id="Layer_1" xmlns="http://www.w3.org/2000/svg" xmlns:xlink="http://www.w3.org/1999/xlink" x="0px" y="0px"
	 viewBox="0 0 66 43" style="enable-background:new 0 0 66 43;" xml:space="preserve">
<path style="fill:#FF3671;" d="M61.9,27.4l-4.2-4H60c1.2,0,2.2-1,2.2-2.2c0-1.2-1-2.2-2.2-2.2h-2.6l4.3-4.6c0.8-0.9,0.8-2.3-0.1-3.1
	c-0.9-0.8-2.3-0.8-3.1,0.1L51.4,19H43l4.5-4.7c0.8-0.9,0.8-2.3-0.1-3.1c-0.9-0.8-2.3-0.8-3.1,0.1L37,19H9.6L22.4,6.3
	c0.9-0.9,0.9-2.2,0-3.1l0,0c-0.9-0.9-2.2-0.9-3.1,0L3.4,19.1c-1.1,1.1-1.1,3,0,4.1l15.8,16.1c0.8,0.9,2.2,0.9,3.1,0
	c0.9-0.8,0.9-2.2,0-3.1L9.7,23.4h27.5l7.4,7c0.9,0.8,2.3,0.8,3.1-0.1l0,0c0.8-0.9,0.8-2.3-0.1-3.1l-4-3.8h7.8l7.5,7.2
	c0.9,0.8,2.3,0.8,3.1-0.1C62.8,29.6,62.7,28.2,61.9,27.4z"/>
<g id="Favorite">
</g>
</svg>
