<?xml version="1.0" encoding="utf-8"?>
<!-- Generator: Adobe Illustrator 19.1.1, SVG Export Plug-In . SVG Version: 6.00 Build 0)  -->
<svg version="1.1" id="Layer_1" xmlns="http://www.w3.org/2000/svg" xmlns:xlink="http://www.w3.org/1999/xlink" x="0px" y="0px"
	 viewBox="0 0 66 66" style="enable-background:new 0 0 66 66;" xml:space="preserve">
<g id="Favorite">
	<g>
		<path style="fill:#FF3671;" d="M39.3,28.8c-0.3,0-0.6,0-0.8,0c-2.1,0-3.1,0.8-4.2,1.9c-1.1-1.2-2.1-1.9-4.2-1.9
			c-0.3,0-0.5,0-0.8,0c-1.8,0.1-3.9,1.6-4.1,4.3V34c0.2,2.6,2.5,5.8,9.2,9.8c6.7-4,8.9-7.2,9.2-9.8v-0.9
			C43.1,30.4,41.1,28.9,39.3,28.8z"/>
	</g>
	<g>
		<path style="fill:#FF3671;" d="M11.9,51.4c-1.7,0-3.2-1.2-3.6-2.8L2.2,23.5C2,22.6,2.3,21.8,3,21.3L4,20.5l1.2,0.6
			c2.1,1.2,9.7,4.9,16.1,1.3c4.8-2.7,8.1-8.9,10-18.4c0.2-1.1,1.2-2,2.4-2s2.2,0.8,2.4,2c1.8,9.5,5.2,15.7,10,18.4
			c6.4,3.6,13.9-0.1,16.1-1.3l1.1-0.6l1.1,0.8c0.7,0.5,1,1.3,0.8,2.1l-5.6,25c-0.4,1.7-1.9,2.9-3.6,2.9L11.9,51.4
			C11.9,51.4,11.9,51.4,11.9,51.4z M7,26.4l5.1,21l43.5-0.1l4.7-20.9c-4.1,1.6-10.5,2.9-16.3-0.4c-4.6-2.6-8.1-7.6-10.4-14.9
			c-2.3,7.3-5.7,12.3-10.4,14.9C17.4,29.2,11.1,27.9,7,26.4z"/>
	</g>
	<g>
		<g>
			<path style="fill:#FF3671;" d="M54.1,61.2H13.4c-1.3,0-2.3-1-2.3-2.3v0c0-1.3,1-2.3,2.3-2.3h40.6c1.3,0,2.3,1,2.3,2.3v0
				C56.4,60.2,55.3,61.2,54.1,61.2z"/>
		</g>
	</g>
</g>
</svg>
