<?xml version="1.0" encoding="utf-8"?>
<!-- Generator: Adobe Illustrator 19.1.1, SVG Export Plug-In . SVG Version: 6.00 Build 0)  -->
<svg version="1.1" id="Layer_1" xmlns="http://www.w3.org/2000/svg" xmlns:xlink="http://www.w3.org/1999/xlink" x="0px" y="0px"
	 viewBox="0 0 66 66" style="enable-background:new 0 0 66 66;" xml:space="preserve">
<g id="Favorite">
	<g>
		<path style="fill:#FF3671;" d="M32.8,62.1c-3.5,0-7.1-0.2-10.6-0.5l-10.3-0.9c-3.7-0.3-6.9-2.3-8.8-5.5s-2.1-7-0.6-10.4
			C8.1,32.2,15,20.2,23,9.1l0.8-1.2c2.2-3,5.5-4.7,9.2-4.7c0,0,0,0,0,0c3.6,0,7,1.7,9.1,4.6l3,4.1c6.6,8.9,12.1,18.5,16.5,28.7
			l1.8,4.2c1.5,3.4,1.2,7.2-0.7,10.3c-1.9,3.2-5.1,5.2-8.8,5.5l-10.9,1C39.8,61.9,36.3,62.1,32.8,62.1z M22.6,57.6
			c6.7,0.6,13.6,0.6,20.3,0l10.9-1c2.4-0.2,4.5-1.5,5.7-3.6s1.4-4.5,0.4-6.7l-1.8-4.2c-4.3-9.9-9.7-19.2-16.1-27.9l-3-4.1
			c-1.4-1.9-3.6-3-5.9-3c0,0,0,0,0,0c-2.4,0-4.5,1.1-5.9,3l-0.8,1.2c-7.9,10.9-14.7,22.6-20.1,35c-1,2.2-0.8,4.6,0.4,6.7
			c1.2,2.1,3.3,3.4,5.7,3.6L22.6,57.6z"/>
	</g>
</g>
</svg>
