<?xml version="1.0" encoding="utf-8"?>
<!-- Generator: Adobe Illustrator 19.1.1, SVG Export Plug-In . SVG Version: 6.00 Build 0)  -->
<svg version="1.1" id="Layer_1" xmlns="http://www.w3.org/2000/svg" xmlns:xlink="http://www.w3.org/1999/xlink" x="0px" y="0px"
	 viewBox="0 0 66 85.5" style="enable-background:new 0 0 66 85.5;" xml:space="preserve">
<g id="Favorite">
	<path style="fill:none;stroke:#FF3671;stroke-width:4;stroke-miterlimit:10;" d="M27.9,4.4c-0.3,0.1-0.6,0.1-0.8,0.2
		c-2,0.6-2.8,1.6-3.6,3c-1.4-0.8-2.6-1.3-4.7-0.8C18.6,7,18.3,7,18,7.1c-1.7,0.6-3.4,2.6-2.9,5.3l0.2,0.9c0.9,2.5,4,5,11.6,7.1
		c5.4-5.7,6.8-9.5,6.3-12.1l-0.2-0.9C32.1,4.9,29.7,4.1,27.9,4.4z"/>
	<path style="fill:none;stroke:#FF3671;stroke-width:4;stroke-miterlimit:10;" d="M53,10.8c-0.2-0.1-0.4-0.2-0.6-0.2
		c-1.5-0.5-2.4-0.2-3.5,0.4c-0.6-1.1-1.1-1.9-2.6-2.4c-0.2-0.1-0.4-0.1-0.6-0.2c-1.3-0.3-3.2,0.2-4,2.1l-0.2,0.6
		c-0.4,1.9,0.5,4.8,4.3,9.2c5.7-1.3,8.1-3.1,8.9-4.9l0.2-0.6C55.4,12.8,54.2,11.3,53,10.8z"/>
	<path style="fill:#FF3671;" d="M63.4,28.2c-1.2-1.5-3-2.3-4.9-2.3L3.1,25.9c-1.2,0-2.2,0.9-2.2,2v0.1c0,1.1,1,2,2.2,2h7.2
		c-0.3,0.7-0.5,1.5-0.5,2.3v0.6H9.8v38.2h0c0.1,1.1,1,1.9,2.1,1.9h37c1.2,0,2.2-1,2.2-2.2c0-1.2-1-2.2-2.2-2.2H13.8v-6.8
		c0.7,0.3,1.5,0.5,2.4,0.5h37.5c3,0,5.6-2.1,6.2-5l4.8-23.7C65.1,31.6,64.6,29.7,63.4,28.2z M60.8,32.7L56,56.4
		c-0.2,1.1-1.2,1.9-2.3,1.9H16.2c-1.3,0-2.3-1-2.3-2.3V32.2c0-1.3,1-2.3,2.3-2.3h42.4c0.7,0,1.4,0.3,1.8,0.9
		C60.8,31.3,60.9,32,60.8,32.7z"/>
	<circle style="fill:#FF3671;" cx="20.1" cy="80" r="3.1"/>
	<circle style="fill:#FF3671;" cx="38.8" cy="80" r="3.1"/>
</g>
</svg>
