<?xml version="1.0" encoding="utf-8"?>
<!-- Generator: Adobe Illustrator 19.1.1, SVG Export Plug-In . SVG Version: 6.00 Build 0)  -->
<svg version="1.1" id="Layer_1" xmlns="http://www.w3.org/2000/svg" xmlns:xlink="http://www.w3.org/1999/xlink" x="0px" y="0px"
	 viewBox="0 0 66 43" style="enable-background:new 0 0 66 43;" xml:space="preserve">
<path style="fill:#FF3671;" d="M64.1,15.4C63.4,8.2,57.9,4.5,53,4.1C52.3,4,51.7,4,51,4c-4.6,0-7.2,1.6-9.4,3.5
	c-2.2-2-4.8-3.5-9.4-3.5c-0.7,0-1.3,0-2,0.1c-4.9,0.4-10.4,4.1-11.1,11.4l0,2.2l0,0.2c0,0.5,0.1,1.1,0.2,1.6c0,0.1,0,0.2,0.1,0.3
	H7.3l8.1-8.1c0.3-0.3,0.5-0.8,0.5-1.3c0-0.5-0.2-1-0.5-1.3c-0.7-0.7-1.9-0.7-2.6,0l-11,11c-0.9,0.9-0.9,2.4,0,3.3l10.9,11.1
	C13,34.8,13.5,35,14,35c0,0,0,0,0,0c0.5,0,0.9-0.2,1.3-0.5c0.7-0.7,0.7-1.9,0-2.6l-8-8.1h13.6c0.5,1,1.1,2,1.9,2.9
	c3.4,4.6,9,9.2,17.1,14.2c0.5,0.3,1.1,0.5,1.7,0.5c0.6,0,1.2-0.2,1.7-0.5c13.4-8.1,20.2-15.7,20.9-23.1l0-2.2L64.1,15.4z M60.1,17.5
	c-0.6,5.8-6.8,12.4-18.5,19.6C34.2,32.7,29,28.3,26,24.3c-0.1-0.2-0.3-0.4-0.4-0.5h14.1c1.1,0,2-0.9,2-2s-0.9-2-2-2H23.6
	c-0.1-0.4-0.2-0.7-0.3-1.1c-0.1-0.4-0.1-0.7-0.2-1.1v-1.8c0.5-4.9,4.2-7.4,7.4-7.6C31.1,8,31.6,8,32.2,8c3.7,0,5.4,1.1,7.9,3.6
	c0.4,0.4,1,0.6,1.5,0.6c0,0,0,0,0,0c0.6,0,1.1-0.2,1.5-0.6C45.6,9.1,47.3,8,51,8c0.6,0,1.1,0,1.7,0.1l0,0c3.2,0.3,6.9,2.8,7.4,7.6
	V17.5z"/>
<g id="Favorite">
</g>
</svg>
