<?xml version="1.0" encoding="utf-8"?>
<!-- Generator: Adobe Illustrator 19.1.1, SVG Export Plug-In . SVG Version: 6.00 Build 0)  -->
<svg version="1.1" id="Layer_1" xmlns="http://www.w3.org/2000/svg" xmlns:xlink="http://www.w3.org/1999/xlink" x="0px" y="0px"
	 viewBox="0 0 66 66" style="enable-background:new 0 0 66 66;" xml:space="preserve">
<g id="Favorite">
	<circle style="fill:#B24CD8;" cx="33.4" cy="33.3" r="32"/>
	<path style="fill:#FFFFFF;" d="M52.8,20.2c-0.3-0.4-0.7-0.8-1-1.1c-2.2-2.2-5.2-3.4-8.4-3.4c0,0,0,0,0,0c-3.1,0.1-6.1,1.4-8.2,3.6
		c-0.2,0.2-0.4,0.5-0.6,0.7c-0.5,0.5-0.9,1.1-1.2,1.7c-0.3-0.5-0.7-1.1-1.1-1.6c-0.3-0.4-0.7-0.8-1-1.1c-2.2-2.2-5.2-3.4-8.4-3.4
		c0,0,0,0,0,0c-3.1,0.1-6.1,1.4-8.2,3.6c-0.2,0.2-0.4,0.5-0.6,0.7c-1.8,2.2-2.8,5-2.8,7.9c0,0.3,0,0.7,0.1,1l0.2,1.8h0.1
		c0.5,2.1,1.6,4,3.2,5.5l8.5,8.2l8.2-8.5c0.7-0.7,1.3-1.5,1.8-2.4c0.6,1,1.2,1.8,2.1,2.6l8.5,8.2l8.2-8.5c1-1,1.8-2.2,2.3-3.4
		c0.6-1.3,0.9-2.6,1-4c0-0.3,0-0.7,0-1.1C55.4,24.8,54.5,22.3,52.8,20.2z M30.9,28.3c-0.1,0.9-0.3,1.8-0.7,2.7
		c-0.4,0.8-0.9,1.6-1.6,2.3l-5.5,5.6l-1.9-1.8h0l-3.8-3.7c-1.4-1.3-2.2-3-2.4-4.9l0-0.2c0-0.2,0-0.3,0-0.5c0-1.9,0.6-3.8,1.9-5.2
		c0.1-0.2,0.3-0.3,0.4-0.5c1.5-1.5,3.4-2.4,5.4-2.4c0,0,0,0,0,0c2.1,0,4.1,0.8,5.6,2.3c0.2,0.2,0.5,0.5,0.7,0.7l0,0
		c1.1,1.4,1.7,3.1,1.8,4.9C30.9,27.8,30.9,28.1,30.9,28.3z M51.5,28.3c-0.1,0.9-0.3,1.8-0.7,2.7c-0.4,0.8-0.9,1.6-1.6,2.3l-5.5,5.6
		l-1.9-1.8h0l-3.8-3.7c-1.4-1.3-2.2-3-2.4-4.9l0-0.2c0-0.2,0-0.3,0-0.5c0-1.9,0.6-3.8,1.9-5.2c0.1-0.2,0.3-0.3,0.4-0.5
		c1.5-1.5,3.4-2.4,5.4-2.4c0,0,0,0,0,0c2.1,0,4.1,0.8,5.6,2.3c0.2,0.2,0.5,0.5,0.7,0.7l0,0c1.1,1.4,1.7,3.1,1.8,4.9
		C51.5,27.8,51.5,28.1,51.5,28.3z"/>
	<polygon style="fill:#FFFFFF;" points="33.3,48.1 27.2,42.5 24.5,45.4 33.3,53.5 42.1,45.5 39.4,42.5 	"/>
</g>
</svg>
