<?xml version="1.0" encoding="utf-8"?>
<!-- Generator: Adobe Illustrator 19.1.1, SVG Export Plug-In . SVG Version: 6.00 Build 0)  -->
<svg version="1.1" id="Layer_1" xmlns="http://www.w3.org/2000/svg" xmlns:xlink="http://www.w3.org/1999/xlink" x="0px" y="0px"
	 viewBox="0 0 75 61" style="enable-background:new 0 0 75 61;" xml:space="preserve">
<g id="Favorite">
	<path style="fill:#FF3671;" d="M66.9,16.9c-3.8,0-6.8,3.1-6.8,6.8c0,1.6,0.6,3.1,1.5,4.2c-3,1.1-8,2.2-12.4,0.1
		c-4-1.9-6.8-6.1-8.5-12.5c2.5-1,4.2-3.5,4.2-6.3c0-3.8-3.1-6.8-6.8-6.8c-3.8,0-6.8,3.1-6.8,6.8c0,2.8,1.7,5.3,4.2,6.3
		c-1.7,6.4-4.5,10.6-8.5,12.5C22.2,30.3,17,29,14,27.9c0.9-1.1,1.4-2.6,1.4-4.1c0-3.8-3.1-6.8-6.8-6.8S1.7,20,1.7,23.8
		c0,3.8,3.1,6.8,6.8,6.8c0.3,0,0.7,0,1-0.1L15.7,53l0.9,0.4c3.4,1.5,7,2.6,10.8,3.3c3.5,0.7,7.1,1,10.7,1c0.3,0,0.6,0,0.8,0H39
		c3-0.1,6.1-0.4,9.2-0.9c3.8-0.7,7.6-1.9,11.1-3.4l0.9-0.4l6.2-22.5c0.2,0,0.4,0,0.5,0c3.8,0,6.8-3.1,6.8-6.8
		C73.7,20,70.6,16.9,66.9,16.9z M37.9,6.4c1.6,0,2.8,1.3,2.8,2.8s-1.3,2.8-2.8,2.8s-2.8-1.3-2.8-2.8S36.4,6.4,37.9,6.4z M5.7,23.8
		c0-1.6,1.3-2.8,2.8-2.8s2.8,1.3,2.8,2.8s-1.3,2.8-2.8,2.8S5.7,25.3,5.7,23.8z M56.8,50.1c-3,1.2-6.1,2.2-9.3,2.8
		c-2.9,0.5-5.7,0.8-8.5,0.9h-0.1c-0.3,0-0.6,0-0.8,0c-3.3,0-6.6-0.3-9.9-0.9c-3.1-0.6-6.2-1.5-9.1-2.7l-5-18c3.7,1.1,9.3,2,14.4-0.5
		c4.2-2,7.3-5.8,9.4-11.3c2.1,5.5,5.3,9.3,9.4,11.3c5.1,2.5,10.6,1.7,14.4,0.5L56.8,50.1z M66.9,26.6c-1.6,0-2.8-1.3-2.8-2.8
		s1.3-2.8,2.8-2.8s2.8,1.3,2.8,2.8S68.4,26.6,66.9,26.6z"/>
</g>
</svg>
