<?xml version="1.0" encoding="utf-8"?>
<!-- Generator: Adobe Illustrator 19.1.1, SVG Export Plug-In . SVG Version: 6.00 Build 0)  -->
<svg version="1.1" id="Layer_1" xmlns="http://www.w3.org/2000/svg" xmlns:xlink="http://www.w3.org/1999/xlink" x="0px" y="0px"
	 viewBox="0 0 66 66" style="enable-background:new 0 0 66 66;" xml:space="preserve">
<g id="Favorite">
	<g>
		<path style="fill:#FF3671;" d="M34.1,63.7c-11,0-20.8-7.1-23.6-17.7c-0.5-1.9-0.7-3.8-0.9-5.2c-0.1-0.5-0.1-0.9-0.2-1.3l0-0.2
			l0-0.2c0.4-10.8,3.3-19.4,9.3-27c3.1-3.9,6.4-6.5,10.3-8.1l0,0c4.2-1.6,8.4-1.3,12.6,0.9c3.8,2,7.1,5.1,10,9.4
			c4.2,6.1,6.6,13,7.3,20.4c0.6,6.4-0.4,11.8-3,16.4c-3.9,6.9-10.1,11-18.2,12.2C36.6,63.7,35.4,63.7,34.1,63.7z M13.4,39.2
			c0.1,0.3,0.1,0.7,0.2,1.2c0.2,1.4,0.4,3,0.8,4.7c2.6,9.8,12.4,16,22.8,14.5c6.8-1,12-4.4,15.3-10.2c2.3-4,3.1-8.4,2.5-14.1
			c-0.6-6.7-2.9-12.9-6.7-18.5c-2.6-3.8-5.3-6.4-8.6-8.2c-3.1-1.7-6.2-1.9-9.2-0.7h0c-3.2,1.3-6,3.4-8.6,6.8
			C16.5,21.5,13.8,29.3,13.4,39.2z"/>
	</g>
</g>
</svg>
