<?xml version="1.0" encoding="utf-8"?>
<!-- Generator: Adobe Illustrator 19.1.1, SVG Export Plug-In . SVG Version: 6.00 Build 0)  -->
<svg version="1.1" id="Layer_1" xmlns="http://www.w3.org/2000/svg" xmlns:xlink="http://www.w3.org/1999/xlink" x="0px" y="0px"
	 viewBox="0 0 66 66" style="enable-background:new 0 0 66 66;" xml:space="preserve">
<g id="Favorite">
	<g>
		<path style="fill:#FF3671;" d="M16.5,64c-1.1,0-2.1-0.3-3-1c-1.6-1.2-2.4-3.1-2.1-5.1l2.5-15.4c0.1-0.4-0.1-0.8-0.4-1.1L2.3,30.6
			c-1.4-1.4-2-3.4-1.4-5.3s2.2-3.3,4.2-3.6l15.5-2.3c0.4-0.1,0.7-0.3,0.9-0.7l6.8-14.1C29.2,2.8,31,1.7,33,1.6c0,0,0,0,0,0
			c2,0,3.8,1.1,4.7,2.9l7,14c0.2,0.4,0.5,0.6,0.9,0.7h0l15.5,2.2c2,0.3,3.6,1.6,4.2,3.5s0.1,4-1.3,5.4l-11.1,11
			c-0.3,0.3-0.4,0.7-0.3,1.1l2.7,15.4c0.4,2-0.4,3.9-2,5.1c-1.6,1.2-3.7,1.4-5.5,0.4L33.9,56c-0.4-0.2-0.8-0.2-1.1,0L19,63.4
			C18.2,63.8,17.3,64,16.5,64z M33,5.6C33,5.6,33,5.6,33,5.6c-0.2,0-0.8,0.1-1.1,0.7l-6.8,14.1c-0.8,1.5-2.2,2.6-3.9,2.9L5.7,25.6
			c-0.7,0.1-0.9,0.6-1,0.8c-0.1,0.2-0.2,0.8,0.3,1.2l11.3,10.9c1.2,1.2,1.8,2.9,1.5,4.6l-2.5,15.4c-0.1,0.7,0.3,1.1,0.5,1.2
			c0.2,0.1,0.7,0.4,1.3,0.1l13.8-7.4c1.5-0.8,3.3-0.8,4.9,0l13.9,7.2c0.6,0.3,1.1,0,1.3-0.1c0.2-0.1,0.6-0.5,0.5-1.2L48.6,43
			c-0.3-1.7,0.2-3.4,1.5-4.6l11.1-11c0.5-0.5,0.4-1,0.3-1.2c-0.1-0.2-0.3-0.7-1-0.8l-15.5-2.2c-1.7-0.2-3.2-1.3-3.9-2.8l-7-14
			C33.8,5.7,33.2,5.6,33,5.6z"/>
	</g>
</g>
</svg>
