<?xml version="1.0" encoding="utf-8"?>
<!-- Generator: Adobe Illustrator 19.1.1, SVG Export Plug-In . SVG Version: 6.00 Build 0)  -->
<svg version="1.1" id="Layer_1" xmlns="http://www.w3.org/2000/svg" xmlns:xlink="http://www.w3.org/1999/xlink" x="0px" y="0px"
	 viewBox="0 0 66 66" style="enable-background:new 0 0 66 66;" xml:space="preserve">
<g id="Favorite">
	<path style="fill:#FF3671;" d="M33.7,2c-17.1,0-31,13.9-31,31s13.9,31,31,31s31-13.9,31-31S50.8,2,33.7,2z M47.5,9.8l-6.1,8.5
		c-2.3-1.2-4.9-1.9-7.7-1.9c-2.8,0-5.4,0.7-7.7,1.9l-6.1-8.5C24,7.4,28.7,6,33.7,6S43.5,7.4,47.5,9.8z M33.7,45.6
		c-6.9,0-12.6-5.7-12.6-12.6c0-7,5.7-12.6,12.6-12.6c7,0,12.6,5.7,12.6,12.6C46.3,39.9,40.7,45.6,33.7,45.6z M6.7,33
		c0-8.4,3.9-16,9.9-20.9l6.1,8.5c-3.4,3-5.6,7.5-5.6,12.4c0,4.6,1.9,8.8,5,11.9L16,53.4C10.3,48.4,6.7,41.1,6.7,33z M19.2,55.8
		l6.1-8.5c2.5,1.5,5.3,2.3,8.4,2.3c3.1,0,6-0.9,8.4-2.3l6.1,8.5C44,58.4,39.1,60,33.7,60S23.4,58.4,19.2,55.8z M51.4,53.4l-6.1-8.5
		c3.1-3,5-7.2,5-11.9c0-4.9-2.2-9.4-5.6-12.4l6.1-8.5c6.1,5,9.9,12.5,9.9,20.9C60.7,41.1,57.1,48.4,51.4,53.4z"/>
	<path style="fill:#FF3671;" d="M33.8,37.6c-1.1,0-1.9,0.8-1.9,1.9c0,1.1,0.8,1.9,1.9,1.9c1.1,0,1.9-0.8,1.9-1.9
		C35.7,38.4,34.9,37.6,33.8,37.6z"/>
	<path style="fill:#FF3671;" d="M33.9,25.4c-3.2,0-5.1,1.9-5.1,5.1l3,0c0-1.4,0.7-2,1.8-2c1,0,1.6,0.4,1.6,1.5
		c0,2.2-2.8,2.4-2.8,5.9h2.9c0-2.7,3.4-3.1,3.4-6.5C38.8,26.8,36.9,25.4,33.9,25.4z"/>
</g>
</svg>
