<?xml version="1.0" encoding="utf-8"?>
<!-- Generator: Adobe Illustrator 19.1.1, SVG Export Plug-In . SVG Version: 6.00 Build 0)  -->
<svg version="1.1" id="Layer_1" xmlns="http://www.w3.org/2000/svg" xmlns:xlink="http://www.w3.org/1999/xlink" x="0px" y="0px"
	 viewBox="0 0 83 61" style="enable-background:new 0 0 83 61;" xml:space="preserve">
<g id="Favorite">
	<path style="fill:#FF3671;" d="M75.1,17.7c-3.1,0-5.6,2.5-5.6,5.6c0,1.2,0.4,2.3,1,3.2c-4.2,1.4-10.7,2.7-16.7-0.1
		c-4.5-2.2-8-6.4-10.3-12.6c2.1-0.8,3.6-2.8,3.6-5.2c0-3.1-2.5-5.6-5.6-5.6S36,5.4,36,8.5c0,2.2,1.3,4.1,3.1,5
		c-2.3,6.3-5.8,10.6-10.4,12.8c-6.2,3-13,1.4-17.1,0c0.8-1,1.2-2.2,1.2-3.5c0-3.1-2.5-5.6-5.6-5.6c-3.1,0-5.6,2.5-5.6,5.6
		s2.5,5.6,5.6,5.6c0.8,0,1.5-0.2,2.2-0.4l6.8,24.8c4.3,1.9,8.6,3.1,12.6,3.9c3.6,0.7,7.9,1.2,12.5,1.2c0.3,0,0.7,0,1,0
		c0,0,0.1,0,0.1,0c4-0.1,7.6-0.5,10.8-1.1c4.2-0.8,8.5-2.1,13-4l6.7-24.4c0.6,0.2,1.3,0.4,2,0.4c3.1,0,5.6-2.5,5.6-5.6
		C80.7,20.2,78.2,17.7,75.1,17.7z M52.5,39c-0.3,3.2-3.1,7-11.2,11.9C33.3,46,30.5,42.1,30.2,39v-1.1c0.3-3.3,2.8-5,5-5.2
		c0.4,0,0.7,0,1,0c2.5,0,3.7,0.9,5.1,2.4c1.4-1.4,2.6-2.4,5.1-2.4c0.3,0,0.7,0,1,0c2.2,0.2,4.7,1.9,5,5.2V39z"/>
</g>
</svg>
