<?xml version="1.0" encoding="utf-8"?>
<!-- Generator: Adobe Illustrator 19.1.1, SVG Export Plug-In . SVG Version: 6.00 Build 0)  -->
<svg version="1.1" id="Layer_1" xmlns="http://www.w3.org/2000/svg" xmlns:xlink="http://www.w3.org/1999/xlink" x="0px" y="0px"
	 viewBox="0 0 66 66" style="enable-background:new 0 0 66 66;" xml:space="preserve">
<g id="Favorite">
	<path style="fill:#FFE3EE;" d="M43.8,55c4-3.6,7.8-7.5,11.5-11.5l3.4-3.7c3.4-3.7,3.4-9.3,0-13.1l-3.5-3.8
		c-3.6-4-7.5-7.8-11.5-11.5l-4-3.7c-3.7-3.4-9.3-3.4-13.1,0L23,11.2c-4,3.6-7.8,7.5-11.5,11.5l-3.7,4.1c-3.4,3.7-3.4,9.3,0,13.1
		l3.7,4c3.6,4,7.5,7.8,11.5,11.5l3.8,3.5c3.7,3.4,9.3,3.4,13.1,0L43.8,55z"/>
	<path style="fill:#FF3671;" d="M61.7,24l-3.5-3.8c-3.7-4.1-7.6-8-11.7-11.7l-4-3.7C37.2,0,29.3,0,24,4.8l-3.7,3.4
		c-4.1,3.7-8,7.7-11.7,11.7L4.8,24C0,29.3,0,37.2,4.8,42.5l3.7,4c3.7,4.1,7.7,8,11.7,11.7l3.8,3.5c2.6,2.4,5.9,3.6,9.2,3.6
		c3.3,0,6.6-1.2,9.2-3.6l4.1-3.7c4.1-3.7,8-7.7,11.7-11.7l3.4-3.7C66.5,37.2,66.5,29.3,61.7,24z M26.7,58.7l-3.8-3.5
		c-4-3.6-7.8-7.5-11.5-11.5l-3.7-4c-3.4-3.7-3.4-9.3,0-13.1l3.7-4.1c3.6-4,7.5-7.8,11.5-11.5l3.7-3.4c3.7-3.4,9.3-3.4,13.1,0l4,3.7
		c4,3.6,7.8,7.5,11.5,11.5l3.5,3.8c3.4,3.7,3.4,9.3,0,13.1l-3.4,3.7c-3.6,4-7.5,7.8-11.5,11.5l-4.1,3.7
		C36.1,62.1,30.4,62.1,26.7,58.7z"/>
	<path style="fill:#FF3671;" d="M46,42.1l-9.8-9.8l9.8-9.8c0.9-0.9,0.9-2.3,0-3.2c-0.9-0.9-2.3-0.9-3.2,0L33,29.2l-9.8-9.8
		c-0.9-0.9-2.3-0.9-3.2,0c-0.9,0.9-0.9,2.3,0,3.2l9.8,9.8l-9.8,9.8c-0.9,0.9-0.9,2.3,0,3.2c0.9,0.9,2.3,0.9,3.2,0l9.8-9.8l9.8,9.8
		c0.4,0.4,1,0.7,1.6,0.7s1.1-0.2,1.6-0.7C46.8,44.4,46.8,43,46,42.1z"/>
</g>
</svg>
