<?xml version="1.0" encoding="utf-8"?>
<!-- Generator: Adobe Illustrator 19.1.1, SVG Export Plug-In . SVG Version: 6.00 Build 0)  -->
<svg version="1.1" id="Layer_1" xmlns="http://www.w3.org/2000/svg" xmlns:xlink="http://www.w3.org/1999/xlink" x="0px" y="0px"
	 viewBox="0 0 66 66" style="enable-background:new 0 0 66 66;" xml:space="preserve">
<g id="Favorite">
	<g>
		<path style="fill:#FF3671;" d="M33.1,64C33.1,64,33.1,64,33.1,64c-2.6,0-4.8-1.6-5.6-4.1l-1.2-3.8c-0.2-0.6-0.6-1-1.2-1.2
			c-0.6-0.2-1.2-0.1-1.7,0.2L20,57.2c-2.2,1.4-5,1.2-7-0.5c-2-1.7-2.7-4.3-1.7-6.8l1.5-3.7c0.2-0.6,0.2-1.2-0.1-1.7
			s-0.8-0.9-1.4-0.9l-4-0.5c-2.6-0.4-4.6-2.3-5-4.8c-0.5-2.6,0.7-5,3.1-6.3l3.5-1.9c0.5-0.3,0.9-0.8,1-1.4c0.1-0.6-0.1-1.2-0.5-1.6
			l-2.7-3c-1.8-1.9-2-4.7-0.7-6.9c1.3-2.3,3.8-3.4,6.4-2.8l3.9,0.8c0.6,0.1,1.2,0,1.6-0.4c0.5-0.4,0.7-0.9,0.7-1.5l-0.1-4
			c-0.1-2.6,1.4-4.9,3.9-5.8c2.5-0.9,5.1-0.1,6.7,1.9l2.5,3.2c0.7,0.9,2.3,0.9,3,0l2.5-3.2c1.6-2.1,4.2-2.8,6.7-1.9
			c2.5,0.9,4,3.2,3.9,5.8l-0.1,4c0,0.6,0.2,1.2,0.7,1.5c0.5,0.4,1.1,0.5,1.6,0.4l3.9-0.8c2.6-0.6,5.1,0.6,6.4,2.8
			c1.3,2.3,1,5-0.7,6.9l-2.7,3c-0.4,0.4-0.6,1-0.5,1.6c0.1,0.6,0.5,1.1,1,1.4l3.5,1.9c2.3,1.2,3.5,3.7,3.1,6.3
			c-0.5,2.6-2.4,4.5-5,4.8l-4,0.5c-0.6,0.1-1.1,0.4-1.4,0.9c-0.3,0.5-0.3,1.1-0.1,1.7l1.5,3.7c1,2.4,0.3,5.1-1.7,6.8
			c-2,1.7-4.7,1.9-7,0.5L42.8,55c-0.5-0.3-1.1-0.4-1.7-0.2c-0.6,0.2-1,0.6-1.2,1.2l-1.2,3.8C37.9,62.4,35.7,64,33.1,64z M24.4,50.7
			c0.7,0,1.4,0.1,2,0.4c1.7,0.6,3,2,3.6,3.8l1.2,3.8c0.4,1.2,1.5,1.3,1.8,1.3l0,0c0.3,0,1.4-0.1,1.8-1.3l1.2-3.8
			c0.6-1.8,1.9-3.1,3.6-3.8c1.7-0.6,3.6-0.4,5.2,0.5l3.4,2.1c1.1,0.7,2,0.1,2.3-0.2c0.3-0.2,1-1,0.5-2.2l-1.5-3.7
			c-0.7-1.7-0.6-3.6,0.4-5.2c0.9-1.6,2.5-2.7,4.3-2.9l4-0.5c1.3-0.2,1.6-1.3,1.6-1.6c0.1-0.3,0.2-1.4-1-2l-3.5-1.9
			c-1.6-0.9-2.7-2.4-3.1-4.2c-0.3-1.8,0.2-3.6,1.4-5l2.7-3c0.9-1,0.4-2,0.2-2.3s-0.8-1.2-2.1-0.9l-3.9,0.8c-1.8,0.4-3.6-0.1-5.1-1.3
			c-1.4-1.2-2.2-2.9-2.1-4.8l0.1-4c0-1.3-1-1.8-1.3-1.9c-0.3-0.1-1.4-0.4-2.2,0.6L37.8,11c-1.1,1.5-2.8,2.3-4.7,2.3
			c-1.8,0-3.5-0.8-4.7-2.3L26,7.8c-0.8-1-1.9-0.7-2.2-0.6s-1.3,0.6-1.3,1.9l0.1,4c0.1,1.8-0.7,3.6-2.1,4.8c-1.4,1.2-3.3,1.6-5.1,1.3
			l-3.9-0.8c-1.3-0.3-1.9,0.6-2.1,0.9c-0.2,0.3-0.6,1.3,0.2,2.3l2.7,3c1.2,1.4,1.8,3.2,1.4,5c-0.3,1.8-1.4,3.3-3.1,4.2l-3.5,1.9
			c-1.2,0.6-1.1,1.7-1,2c0.1,0.3,0.3,1.4,1.6,1.6l4,0.5c1.8,0.3,3.4,1.3,4.3,2.9c0.9,1.6,1.1,3.5,0.4,5.2l-1.5,3.7
			c-0.5,1.2,0.3,2,0.5,2.2c0.3,0.2,1.2,0.8,2.3,0.2l3.4-2.1C22.2,51.1,23.3,50.7,24.4,50.7z"/>
	</g>
</g>
</svg>
