<?xml version="1.0" encoding="utf-8"?>
<!-- Generator: Adobe Illustrator 19.1.1, SVG Export Plug-In . SVG Version: 6.00 Build 0)  -->
<svg version="1.1" id="Layer_1" xmlns="http://www.w3.org/2000/svg" xmlns:xlink="http://www.w3.org/1999/xlink" x="0px" y="0px"
	 viewBox="0 0 66 66" style="enable-background:new 0 0 66 66;" xml:space="preserve">
<g id="Favorite">
	<path style="fill:#B24CD8;" d="M33.2,1.7C15.8,1.7,1.7,15.8,1.7,33.2s14.1,31.5,31.5,31.5s31.5-14.1,31.5-31.5S50.6,1.7,33.2,1.7z
		 M33.2,60.7C18,60.7,5.7,48.3,5.7,33.2S18,5.7,33.2,5.7S60.7,18,60.7,33.2S48.4,60.7,33.2,60.7z"/>
	<path style="fill:#B24CD8;" d="M51.3,21.9c-0.3-0.4-0.6-0.7-1-1c-2.1-2-4.9-3.2-7.8-3.2c0,0,0,0,0,0c-2.9,0.1-5.7,1.3-7.7,3.4
		c-0.2,0.2-0.4,0.4-0.6,0.7c-0.4,0.4-0.7,0.9-1,1.4c-0.3-0.4-0.5-0.8-0.9-1.2c-0.3-0.4-0.6-0.7-1-1c-2.1-2-4.9-3.2-7.8-3.2
		c0,0,0,0,0,0c-2.9,0.1-5.7,1.3-7.7,3.4c-0.2,0.2-0.4,0.4-0.6,0.7c-1.7,2-2.6,4.7-2.6,7.3c0,0.3,0,0.7,0.1,1l0.2,1.8H13
		c0.5,1.9,1.5,3.6,3,5.1l7.9,7.7l7.7-7.9c0.6-0.6,1.1-1.3,1.6-2c0.5,0.8,1.1,1.6,1.8,2.3l7.9,7.7l7.7-7.9c0.9-0.9,1.6-2,2.2-3.2
		c0.5-1.2,0.8-2.4,0.9-3.7c0-0.3,0-0.7,0-1C53.8,26.2,52.9,23.8,51.3,21.9z M30.8,29.4c-0.1,0.8-0.3,1.6-0.6,2.4
		c-0.3,0.8-0.8,1.5-1.4,2.1l-4.9,5.1l-1.6-1.6L18.8,34c-1.2-1.2-2-2.7-2.1-4.4l0-0.2c0-0.1,0-0.3,0-0.4c0-1.7,0.6-3.4,1.7-4.7
		c0.1-0.1,0.3-0.3,0.4-0.4c1.3-1.4,3.1-2.1,4.9-2.2c0,0,0,0,0,0c1.9,0,3.7,0.7,5,2c0.2,0.2,0.4,0.4,0.6,0.7l0,0
		c1,1.2,1.6,2.8,1.6,4.4C30.8,29,30.8,29.2,30.8,29.4z M49.8,29.4c-0.1,0.8-0.3,1.6-0.6,2.4c-0.3,0.8-0.8,1.5-1.4,2.1l-4.9,5.1
		l-1.6-1.6L37.8,34c-1.2-1.2-2-2.7-2.1-4.4l0-0.2c0-0.1,0-0.3,0-0.4c0-1.8,0.6-3.4,1.7-4.7c0.1-0.1,0.3-0.3,0.4-0.4
		c1.3-1.4,3.1-2.1,4.9-2.2c0,0,0,0,0,0c1.9,0,3.7,0.7,5,2c0.2,0.2,0.4,0.4,0.6,0.7l0,0c1,1.2,1.6,2.8,1.6,4.4
		C49.8,29,49.8,29.2,49.8,29.4z"/>
	<polygon style="fill:#B24CD8;" points="33.2,47.4 27.7,42.3 25,45.3 33.2,52.8 41.4,45.4 38.7,42.4 	"/>
</g>
</svg>
