<?xml version="1.0" encoding="utf-8"?>
<!-- Generator: Adobe Illustrator 19.1.1, SVG Export Plug-In . SVG Version: 6.00 Build 0)  -->
<svg version="1.1" id="Layer_1" xmlns="http://www.w3.org/2000/svg" xmlns:xlink="http://www.w3.org/1999/xlink" x="0px" y="0px"
	 viewBox="0 0 66 66" style="enable-background:new 0 0 66 66;" xml:space="preserve">
<g id="Favorite">
	<path style="fill:#FF3671;" d="M60,55.2c-0.2-8.4-4.3-16.1-10.9-20.7c6.7-1.8,9.4-4.9,9.5-5l1.3-1.5l-1.5-1.3
		c-5.5-4.8-10.5-15.3-10.5-15.4l0,0C45.3,5.7,39.7,2,33.2,2C26.6,2,21,5.9,18.4,11.5l-0.1-0.1c0,0.1-5,10.6-10.5,15.4l-1.5,1.3
		l1.3,1.5c0.1,0.2,2.8,3.2,9.4,5C10.6,39.4,6.5,46.9,6.4,55.2l-0.2,8.6l4,0.1l0.2-8.5c0.2-8.5,5.1-16,12.6-19.5
		c2.6,2,5.9,3.3,9.5,3.3h1.4c3.6,0,6.9-1.2,9.5-3.3c7.5,3.5,12.4,11,12.6,19.5l0.2,8.6l4-0.1L60,55.2z M47.7,30.7
		c1.1-2.1,1.8-4.6,1.8-7.1l0-1.5c1.4,2.1,2.9,4.2,4.6,6C52.8,28.8,50.8,29.9,47.7,30.7z M33.2,6c5.6,0,10.3,3.7,11.8,8.9
		c-3.3,1-6.6-1-8.5-2.5c0-0.6,0-1.3-0.1-1.9c-0.1-0.4-0.3-1-0.7-1.5c-0.7-0.7-1.7-0.9-2.7-0.6c-1,0.4-1.8,1.4-1.9,2.4
		c-0.1,1.3,0.7,2.3,1.1,2.8c-0.3,0.7-0.8,1.4-1.4,2c-1.2,1.2-5.1,3.1-9.7,1.9C21.3,11.1,26.7,6,33.2,6z M17,22c0,0.9,0,1.6,0,1.6
		c0,2.7,0.7,5.3,1.9,7.5c-3.3-0.8-5.5-1.9-6.8-2.8C13.9,26.4,15.6,24.2,17,22z M33.9,35.1h-1.4c-6.3,0-11.5-5.2-11.5-11.5
		c0,0,0-0.8,0-1.9c1,0.2,2,0.3,2.9,0.3c4.4,0,7.9-1.8,9.6-3.4c0.7-0.7,1.3-1.4,1.7-2.2c2.6,1.8,6.3,3.4,10.2,2.5l0,4.7
		C45.4,29.9,40.3,35.1,33.9,35.1z"/>
	<path style="fill:#FF3671;" d="M39.2,42.7c-2.7-0.2-4.3,0.4-5.7,1.4c-1.4-1.1-3.1-1.6-5.7-1.4c-2.9,0.2-6,2.6-6.4,6.5l0,1.2l0,0.2
		c0.4,4,4,8.1,11.1,12.4l1,0.6l1-0.6c7.1-4.3,10.7-8.3,11.1-12.4l0-1.2l0-0.2C45.2,45.3,42.1,43,39.2,42.7z M41.6,50.3
		c-0.2,1.7-1.8,4.6-8.1,8.6c-6.3-4-7.9-6.8-8.1-8.6v-0.8c0.2-2.1,1.9-2.8,2.7-2.8c0.3,0,0.5,0,0.7,0c1.5,0,2.1,0.4,3.1,1.4
		c0.4,0.4,1,0.7,1.6,0.7c0,0,0,0,0,0c0.6,0,1.2-0.2,1.6-0.7c0.9-0.9,1.6-1.4,3.1-1.4c0.2,0,0.5,0,0.7,0l0,0c0.8,0.1,2.5,0.8,2.7,2.8
		V50.3z"/>
</g>
</svg>
