<?xml version="1.0" encoding="utf-8"?>
<!-- Generator: Adobe Illustrator 19.1.1, SVG Export Plug-In . SVG Version: 6.00 Build 0)  -->
<svg version="1.1" id="Layer_1" xmlns="http://www.w3.org/2000/svg" xmlns:xlink="http://www.w3.org/1999/xlink" x="0px" y="0px"
	 viewBox="0 0 66 66" style="enable-background:new 0 0 66 66;" xml:space="preserve">
<g id="Favorite">
</g>
<path style="fill:#FF3671;" d="M58.6,40c9-9,9-23.6,0-32.5S35-1.5,26,7.4c-8.5,8.5-8.9,22-1.3,31.1l0,0L10.3,52.9l-6.5-6.5
	c-0.7-0.7-1.9-0.7-2.6,0c-0.7,0.7-0.7,1.9,0,2.6l6.5,6.5L2.2,61c-0.8,0.8-0.8,2,0,2.8c0.8,0.8,2,0.8,2.8,0l5.5-5.5l6.5,6.5
	c0.7,0.7,1.9,0.7,2.6,0c0.7-0.7,0.7-1.9,0-2.6l-6.5-6.5l14.4-14.4C36.5,48.9,50.1,48.5,58.6,40z M28.9,10.3c7.4-7.4,19.5-7.4,26.9,0
	s7.4,19.5,0,26.9s-19.5,7.4-26.9,0S21.5,17.7,28.9,10.3z"/>
</svg>
