<?xml version="1.0" encoding="utf-8"?>
<!-- Generator: Adobe Illustrator 19.1.1, SVG Export Plug-In . SVG Version: 6.00 Build 0)  -->
<svg version="1.1" id="Layer_1" xmlns="http://www.w3.org/2000/svg" xmlns:xlink="http://www.w3.org/1999/xlink" x="0px" y="0px"
	 viewBox="0 0 66 66" style="enable-background:new 0 0 66 66;" xml:space="preserve">
<g id="Favorite">
	<path style="fill:#FF3671;" d="M60.4,54.8c-0.2-8.2-4.1-15.7-10.5-20.4c6.4-1.8,9-4.8,9.1-4.9l1.4-1.6l-1.6-1.4
		c-5.5-4.8-10.4-15.3-10.5-15.4l0,0c-2.6-5.5-8.2-9.3-14.7-9.3c-6.6,0-12.3,3.9-14.9,9.6l-0.1-0.1c0,0.1-4.9,10.6-10.5,15.4
		l-1.6,1.4l1.4,1.6c0.1,0.2,2.7,3,8.9,4.8c-2,1.5-3.7,3.3-5.2,5.3c-2.5,0.8-4.8,2.9-5.1,6.3l0,1.2l0,0.2c0.1,0.8,0.3,1.6,0.6,2.4
		c-0.3,1.6-0.5,3.2-0.6,4.8l-0.2,8.6l4.2,0.1l0.2-8.5c1.8,1.7,4,3.3,6.9,5.1l1.1,0.7l1.1-0.7c7.1-4.3,10.8-8.4,11.1-12.4l0-1.2
		l0-0.2c-0.4-4-3.5-6.4-6.5-6.6c-2.7-0.2-4.3,0.3-5.8,1.4c-0.5-0.4-1.1-0.7-1.8-1c1.7-1.7,3.6-3.2,5.8-4.2c0.2,0,0.4,0.1,0.6,0.1
		l0,0c2.6,2,5.9,3.3,9.5,3.3h1.4c3.7,0,7.1-1.3,9.8-3.4c7.3,3.5,12,10.9,12.2,19.2l0.2,8.6l4.2-0.1L60.4,54.8z M18.7,45.8
		C18.7,45.8,18.7,45.8,18.7,45.8c0.6,0,1.2-0.2,1.6-0.7c0.9-0.9,1.5-1.4,3-1.4c0.2,0,0.5,0,0.7,0l0,0c0.8,0.1,2.4,0.7,2.6,2.7v0.8
		c-0.2,1.7-1.8,4.5-8,8.5c-6.2-3.9-7.8-6.8-8-8.5v-0.8c0.2-2,1.8-2.7,2.7-2.7c0.3,0,0.5,0,0.7,0c1.5,0,2.1,0.4,3,1.4
		C17.5,45.6,18.1,45.8,18.7,45.8z M48.2,30.5c1.1-2.1,1.7-4.5,1.7-7l0-1.2c1.3,2,2.8,3.9,4.4,5.6C53.1,28.8,51.1,29.8,48.2,30.5z
		 M33.6,6.1c5.5,0,10.2,3.6,11.6,8.7c-3.2,0.9-6.4-1-8.2-2.5c0-0.6,0-1.2-0.1-1.8c-0.1-0.4-0.3-1-0.8-1.5c-0.7-0.7-1.8-1-2.8-0.6
		c-1.1,0.4-1.9,1.4-1.9,2.5c-0.1,1.3,0.6,2.3,1.1,2.8c-0.3,0.7-0.8,1.4-1.4,2c-1.2,1.1-5,3-9.6,1.9C21.8,11.2,27.1,6.1,33.6,6.1z
		 M17.3,22.3c0,0.7,0,1.2,0,1.2c0,2.7,0.7,5.2,1.8,7.3c-3.1-0.8-5.2-1.8-6.5-2.7C14.3,26.5,15.9,24.4,17.3,22.3z M34.3,35h-1.4
		c-6.3,0-11.4-5.1-11.4-11.4c0,0,0-0.8,0-1.7c1,0.2,1.9,0.3,2.8,0.3c4.4,0,8-1.8,9.7-3.4c0.7-0.6,1.2-1.4,1.7-2.1
		c2.6,1.8,6.2,3.3,10.1,2.5l0,4.5C45.7,29.9,40.6,35,34.3,35z"/>
</g>
</svg>
