<?xml version="1.0" encoding="utf-8"?>
<!-- Generator: Adobe Illustrator 19.1.1, SVG Export Plug-In . SVG Version: 6.00 Build 0)  -->
<svg version="1.1" id="Layer_1" xmlns="http://www.w3.org/2000/svg" xmlns:xlink="http://www.w3.org/1999/xlink" x="0px" y="0px"
	 viewBox="0 0 66 66" style="enable-background:new 0 0 66 66;" xml:space="preserve">
<path style="fill:#FF3671;" d="M60.6,21.1c-0.4-0.5-0.9-1-1.3-1.5c-3.4-3.4-6.4-4-9-4.1c-0.1-2.6-0.7-5.7-4.1-9
	c-0.5-0.5-0.9-0.9-1.5-1.3C41,2.1,34.6,0.8,29.1,5.4l-1.5,1.5L27.5,7c-4.6,5.5-5.1,15.4-1.6,30L13.1,49.8l-6.6-6.6
	c-0.8-0.8-2-0.8-2.7,0c-0.4,0.4-0.6,0.9-0.6,1.4s0.2,1,0.6,1.4l6.6,6.6l-5.6,5.6c-0.8,0.8-0.8,2.1,0,2.9c0.4,0.4,0.9,0.6,1.5,0.6
	s1.1-0.2,1.5-0.6l5.6-5.6l6.6,6.6c0.4,0.4,0.9,0.6,1.4,0.6c0.5,0,1-0.2,1.4-0.6s0.6-0.9,0.6-1.4s-0.2-1-0.6-1.4L16,52.7L28.7,40
	c6.3,1.5,11.8,2.3,16.4,2.3c6,0,10.5-1.3,13.7-3.9l1.5-1.5l0.1-0.1C65,31.2,63.7,24.7,60.6,21.1z M46.8,19c0.3,0.3,0.6,0.4,1,0.4
	c0,0,0,0,0,0l0.5,0c3.1,0,5.4,0.2,8.2,3c0.4,0.4,0.8,0.8,1.1,1.2c2.1,2.4,2.9,6.8-0.2,10.5l-1.3,1.3c-4.5,3.7-13.4,3.9-26.6,0.8
	C26.5,23,26.7,14,30.4,9.6l1.3-1.3c3.8-3.1,8.1-2.2,10.5-0.2c0.4,0.4,0.8,0.7,1.2,1.1c2.8,2.8,3,5.1,3,8.2l0,0.5
	C46.4,18.4,46.5,18.7,46.8,19z"/>
<g id="Favorite">
</g>
</svg>
