<?xml version="1.0" encoding="utf-8"?>
<!-- Generator: Adobe Illustrator 19.1.1, SVG Export Plug-In . SVG Version: 6.00 Build 0)  -->
<svg version="1.1" id="Layer_1" xmlns="http://www.w3.org/2000/svg" xmlns:xlink="http://www.w3.org/1999/xlink" x="0px" y="0px"
	 viewBox="0 0 66 55" style="enable-background:new 0 0 66 55;" xml:space="preserve">
<g id="Favorite">
</g>
<path style="fill:#FF3671;" d="M34.5,27.2c6.7-4.1,10.2-8,10.5-11.9l0-1.2l0-0.2c-0.4-3.9-3.4-6.2-6.3-6.4C36,7.3,34.4,8,33.2,8.9
	c-1.3-0.9-2.9-1.6-5.6-1.4c-2.8,0.2-5.9,2.5-6.3,6.4l0,1.2l0,0.2c0.4,3.9,3.8,7.8,10.5,11.9c0.4,0.3,0.9,0.4,1.3,0.4
	S34.1,27.5,34.5,27.2z M25.3,15v-0.8c0.2-2,1.8-2.6,2.6-2.7c0.3,0,0.5,0,0.7,0c1.5,0,2.1,0.4,3,1.4c0.4,0.4,0.9,0.6,1.5,0.6l0.9,0
	l0.6-0.6c1-1,1.6-1.4,3-1.4c0.2,0,0.5,0,0.7,0l0,0c0.8,0.1,2.4,0.7,2.6,2.7V15c-0.2,1.7-1.8,4.4-7.9,8.3C27,19.5,25.5,16.7,25.3,15z
	"/>
<path style="fill:#FF3671;" d="M62.1,10.9h-0.3c-0.6,0-1.1,0.2-1.5,0.5L57,13.9v-8c0-2.4-2-4.4-4.4-4.4H13.2c-2.4,0-4.4,2-4.4,4.4
	v7.7l-2.7-2.1c-0.5-0.4-1.2-0.6-1.8-0.6c-1.6,0-2.9,1.3-2.9,2.9v34.4c0,3.4,2.7,6.1,6.1,6.1h51c3.4,0,6.1-2.7,6.1-6.1V13.4
	C64.6,12,63.5,10.9,62.1,10.9z M24.2,37.9c0.4-0.3,0.7-0.8,0.8-1.4c0.1-0.5-0.1-1.1-0.4-1.5c-0.3-0.4-0.8-0.7-1.4-0.8
	c-0.5-0.1-1.1,0.1-1.5,0.4L5.5,47.1V16.1L30,35.7c0.8,0.6,1.8,1,2.8,1c1,0,1.9-0.3,2.8-0.9L57,19.1h0v0l3.5-2.7v30.8L44.1,34.6
	c-0.4-0.3-1-0.5-1.5-0.4c-0.5,0.1-1,0.4-1.4,0.8c-0.3,0.4-0.5,1-0.4,1.5c0.1,0.5,0.3,1,0.8,1.4l16,12.3H8.2L24.2,37.9z M12.8,5.9
	c0-0.2,0.2-0.4,0.4-0.4h39.4c0.2,0,0.4,0.2,0.4,0.4V17L33.1,32.6c-0.2,0.1-0.4,0.1-0.5,0L12.8,16.8V5.9z"/>
</svg>
