<?xml version="1.0" encoding="utf-8"?>
<!-- Generator: Adobe Illustrator 19.1.1, SVG Export Plug-In . SVG Version: 6.00 Build 0)  -->
<svg version="1.1" id="Layer_1" xmlns="http://www.w3.org/2000/svg" xmlns:xlink="http://www.w3.org/1999/xlink" x="0px" y="0px"
	 viewBox="0 0 66 47.5" style="enable-background:new 0 0 66 47.5;" xml:space="preserve">
<g id="Favorite">
	<path style="fill:#FF3671;" d="M52.9,4.1C52.1,4,51.4,4,50.7,4c-5.5,0-8.2,2-11.1,4.9c-0.2,0.2-0.5,0.2-0.7,0
		c-3-3-5.7-4.9-11.2-4.9c-0.7,0-1.5,0-2.3,0.1c-4.9,0.4-10.6,4.3-11.3,11.7V16c0,0,0,0,0,0c0.5,0.2,1.1,0.1,1.5-0.4
		c1.3-1.9,2.8-3.2,5.6-4c0.5-0.1,1-0.3,1.5-0.4c3.5-0.7,8.2,0.8,10.1,5.7l0,0.1l0.5,1.6c0.9,4.6-1.4,10.4-7,17.4
		c3.1,2.5,6.9,5.2,11.5,8.1c0.8,0.5,1.8,0.5,2.6,0c17.2-10.6,23.1-19,23.7-25.9v-2.5C63.5,8.3,57.8,4.5,52.9,4.1z"/>
	<path style="fill:#FF3671;" d="M30.9,17.7c-1.5-3.8-5.1-5-7.8-4.4l0,0c-0.5,0.1-0.9,0.2-1.3,0.3c-2.9,0.8-4,2.2-5.3,4.5
		c-0.2,0.3-0.5,0.5-0.8,0.7c-0.3,0.1-0.7,0.1-1-0.1c-2.3-1.3-4-1.8-6.9-0.9C7.4,17.8,7,18,6.5,18.1c-2.5,1-4.9,3.9-4.2,7.9l0.4,1.4
		c1.8,4.4,8,8.1,18.4,10.9c0.2,0.1,0.4,0,0.6-0.2c7.2-8.1,10.5-14.5,9.6-19.1L30.9,17.7z"/>
</g>
</svg>
