<?xml version="1.0" encoding="utf-8"?>
<!-- Generator: Adobe Illustrator 19.1.1, SVG Export Plug-In . SVG Version: 6.00 Build 0)  -->
<svg version="1.1" id="Layer_1" xmlns="http://www.w3.org/2000/svg" xmlns:xlink="http://www.w3.org/1999/xlink" x="0px" y="0px"
	 viewBox="0 0 66 51" style="enable-background:new 0 0 66 51;" xml:space="preserve">
<g id="Favorite">
	<g>
		<path style="fill:none;stroke:#FF3671;stroke-width:4;stroke-miterlimit:10;" d="M44.4,3.9c-0.9-0.1-1.6-0.1-2.4-0.1
			c-6,0-8.9,2.2-12.1,5.6C26.6,6,23.7,3.8,17.8,3.8c-0.8,0-1.5,0-2.4,0.1C10.2,4.3,4.2,8.4,3.5,16.2v2.6c0.7,7.5,7.2,16.7,26.4,28.2
			c19.2-11.5,25.7-20.7,26.4-28.2v-2.6C55.6,8.4,49.6,4.3,44.4,3.9z"/>
		<path style="fill:#FF3671;" d="M56.9,17.1c-0.5,0-1-0.1-1.5-0.1c-3.8,0-5.6,1.4-7.7,3.5C45.6,18.4,43.8,17,40,17
			c-0.5,0-1,0-1.5,0.1c-3.3,0.3-7.1,2.9-7.5,7.8v1.6c0.4,4.7,4.6,10.6,16.8,17.9C59.9,37.1,64,31.3,64.5,26.5v-1.6
			C64,19.9,60.2,17.4,56.9,17.1z"/>
	</g>
</g>
</svg>
