<?xml version="1.0" encoding="utf-8"?>
<!-- Generator: Adobe Illustrator 19.1.1, SVG Export Plug-In . SVG Version: 6.00 Build 0)  -->
<svg version="1.1" id="Layer_1" xmlns="http://www.w3.org/2000/svg" xmlns:xlink="http://www.w3.org/1999/xlink" x="0px" y="0px"
	 viewBox="0 0 66 46" style="enable-background:new 0 0 66 46;" xml:space="preserve">
<g id="Favorite">
</g>
<path style="fill:#FF3671;" d="M56,0.6H10.4c-4.8,0-8.8,3.9-8.8,8.8v27c0,4.8,3.9,8.8,8.8,8.8H56c4.8,0,8.8-3.9,8.8-8.8v-27
	C64.7,4.5,60.8,0.6,56,0.6z M56,4.6c0.4,0,0.8,0.1,1.1,0.2l-10.4,8.9c-0.9,0.7-1,2-0.2,2.9c0.4,0.4,0.9,0.7,1.4,0.7
	c0.1,0,0.1,0,0.2,0c0.5,0,1-0.2,1.3-0.5l10.9-9.4c0.3,0.6,0.4,1.2,0.4,1.9v27c0,0.6-0.1,1.2-0.3,1.7L43.8,25.3
	c0.6-1.1,0.9-2.2,1-3.2l0-1.1l0-0.2c-0.4-3.8-3.4-6.1-6.2-6.3c-2.7-0.2-4.3,0.4-5.5,1.3c-1.2-0.9-2.9-1.5-5.5-1.3
	c-2.8,0.2-5.8,2.5-6.2,6.3l0,1.1l0,0.2c0.1,1,0.4,2,0.9,3L5.9,37.8c-0.2-0.5-0.3-1-0.3-1.5v-27c0-0.5,0.1-0.9,0.2-1.3l10.6,9.1
	c0.4,0.3,0.9,0.5,1.3,0.5c0.6,0,1.2-0.2,1.6-0.7c0.4-0.4,0.5-0.9,0.5-1.5c0-0.5-0.3-1-0.7-1.4L8.6,5c0.6-0.2,1.2-0.4,1.8-0.4H56z
	 M25.5,21.8v-0.7c0.2-1.9,1.7-2.5,2.5-2.6c0.2,0,0.5,0,0.7,0c1.5,0,2,0.4,3,1.4l1.4,1.5l1.4-1.5c1-1,1.6-1.4,3-1.4
	c0.2,0,0.5,0,0.7,0l0,0c0.8,0.1,2.3,0.7,2.5,2.6v0.7c-0.2,1.6-1.7,4.3-7.7,8.1C27.2,26.1,25.7,23.5,25.5,21.8z M10.4,41.1
	c-0.6,0-1.2-0.1-1.7-0.3l16.1-12.4c1.7,1.9,4.2,3.7,7.4,5.7l1,0.6l1-0.6c3.1-1.9,5.5-3.7,7.2-5.4l16,12.3C57,41,56.5,41.1,56,41.1
	H10.4z"/>
</svg>
