<?xml version="1.0" encoding="utf-8"?>
<!-- Generator: Adobe Illustrator 19.1.1, SVG Export Plug-In . SVG Version: 6.00 Build 0)  -->
<svg version="1.1" id="Layer_1" xmlns="http://www.w3.org/2000/svg" xmlns:xlink="http://www.w3.org/1999/xlink" x="0px" y="0px"
	 viewBox="0 0 66 50.4" style="enable-background:new 0 0 66 50.4;" xml:space="preserve">
<g id="Favorite">
	<path style="fill:none;stroke:#FF3671;stroke-width:4;stroke-miterlimit:10;" d="M55,16.4v-0.6c-0.7-7.6-6.6-11.6-11.6-12
		c-0.8-0.1-1.6-0.1-2.3-0.1c-5.8,0-8.6,2.2-11.8,5.4c-3.2-3.3-6-5.4-11.8-5.4c-0.7,0-1.5,0-2.3,0.1C10,4.2,4.2,8.2,3.5,15.8v2.5
		c0.7,7.3,7.1,16.2,25.8,27.5c3.9-2.3,7.2-4.5,10.1-6.7"/>
	<path style="fill:none;stroke:#FF3671;stroke-width:4;stroke-miterlimit:10;" d="M55.1,16.7c-0.5,0-1-0.1-1.5-0.1
		c-3.7,0-5.5,1.4-7.5,3.5c-2-2.1-3.8-3.5-7.5-3.5c-0.5,0-1,0-1.5,0.1c-3.2,0.3-6.9,2.8-7.4,7.6v1.6c0.4,4.6,4.5,10.3,16.4,17.5
		C58,36.2,62,30.5,62.5,25.9v-1.6C62,19.5,58.3,17,55.1,16.7z"/>
</g>
</svg>
