<?xml version="1.0" encoding="utf-8"?>
<!-- Generator: Adobe Illustrator 19.1.1, SVG Export Plug-In . SVG Version: 6.00 Build 0)  -->
<svg version="1.1" id="Layer_1" xmlns="http://www.w3.org/2000/svg" xmlns:xlink="http://www.w3.org/1999/xlink" x="0px" y="0px"
	 viewBox="0 0 66 46" style="enable-background:new 0 0 66 46;" xml:space="preserve">
<g id="Favorite">
</g>
<path style="fill:#FF3671;" d="M56,0.7H10.5c-4.8,0-8.8,3.9-8.8,8.8v27c0,4.8,3.9,8.8,8.8,8.8H56c4.8,0,8.7-3.9,8.7-8.8v-27
	C64.8,4.6,60.9,0.7,56,0.7z M56,4.7c0.4,0,0.8,0.1,1.1,0.2l-10.4,8.9c-0.9,0.7-1,2-0.2,2.9c0.4,0.4,0.9,0.7,1.4,0.7
	c0.1,0,0.1,0,0.2,0c0.5,0,1-0.2,1.3-0.5l10.9-9.4c0.3,0.6,0.4,1.2,0.4,1.9v27c0,0.6-0.1,1.2-0.3,1.7L43.6,25.2
	c0.4-0.8,0.6-1.6,0.7-2.4v-1.1c-0.3-3.2-2.8-4.9-5-5.1c-0.4,0-0.7,0-1,0c-2.5,0-3.7,0.9-5,2.3c-1.4-1.4-2.6-2.3-5.1-2.3
	c-0.3,0-0.6,0-1,0c-2.2,0.2-4.6,1.9-4.9,5.1v1.1c0.1,0.7,0.2,1.4,0.6,2.1L6,37.9c-0.2-0.5-0.3-1-0.3-1.5v-27c0-0.5,0.1-0.9,0.2-1.3
	l10.6,9.1c0.4,0.3,0.9,0.5,1.3,0.5c0.6,0,1.2-0.2,1.6-0.7c0.4-0.4,0.5-0.9,0.5-1.5c0-0.5-0.3-1-0.7-1.4L8.6,5
	c0.6-0.2,1.2-0.4,1.8-0.4H56z M10.5,41.1c-0.6,0-1.2-0.1-1.7-0.3l16.3-12.6c1.7,1.9,4.3,4,8.2,6.3c3.7-2.2,6.3-4.2,8-6.1l16.2,12.5
	C57,41,56.6,41.1,56,41.1H10.5z"/>
</svg>
