<?xml version="1.0" encoding="utf-8"?>
<!-- Generator: Adobe Illustrator 19.1.1, SVG Export Plug-In . SVG Version: 6.00 Build 0)  -->
<svg version="1.1" id="Layer_1" xmlns="http://www.w3.org/2000/svg" xmlns:xlink="http://www.w3.org/1999/xlink" x="0px" y="0px"
	 viewBox="0 0 54.8 66" style="enable-background:new 0 0 54.8 66;" xml:space="preserve">
<g id="Favorite">
	<g>
		<path style="fill:#FF3671;" d="M27.5,65l-1-0.6C11,55.1,3.1,46.5,2.4,38.2l0-0.2l0-2.5c0.7-8,6.9-12.1,12.3-12.6
			c0.8-0.1,1.5-0.1,2.3-0.1c5.2,0,8.1,1.8,10.6,4.1c2.5-2.3,5.5-4.1,10.6-4.1c0.7,0,1.5,0,2.3,0.1c5.4,0.4,11.5,4.6,12.3,12.6l0,0.2
			l0,2.5c-0.8,8.4-8.7,16.9-24.1,26.3L27.5,65z M6.4,37.9c0.7,6.7,7.8,14.3,21.2,22.5C40.9,52.2,48,44.6,48.7,37.9v-2.1
			c-0.6-5.7-4.9-8.6-8.6-8.9l0,0c-0.7-0.1-1.3-0.1-1.9-0.1c-4.7,0-6.7,1.7-9.2,4.3l-1.4,1.5l-1.4-1.5c-2.5-2.6-4.6-4.3-9.2-4.3
			c-0.6,0-1.3,0-1.9,0.1c-3.8,0.3-8,3.2-8.6,8.9V37.9z"/>
	</g>
	<g>
		<path style="fill:#FF3671;" d="M39,18.5c-0.8,0.6-1.8,0.6-2.6-0.1c-2.5-2.3-5.8-3.7-9.3-3.7c-3.4,0-6.7,1.3-9.2,3.6
			c-0.7,0.6-1.8,0.7-2.5,0.1l-0.1-0.1c-0.9-0.7-0.9-2.1-0.1-2.9c3.3-3,7.5-4.6,12-4.6c4.5,0,8.9,1.7,12.1,4.8
			c0.8,0.8,0.8,2.1-0.1,2.9L39,18.5z"/>
	</g>
	<g>
		<path style="fill:#FF3671;" d="M46.2,12.6c-0.8,0.5-1.9,0.4-2.6-0.4c-3.5-4-9.8-6.6-16.5-6.6c-6.7,0-12.9,2.5-16.4,6.4
			C10.1,12.9,9,13,8.2,12.5l-0.1-0.1c-0.9-0.6-1.2-2-0.4-2.8c4.3-4.9,11.5-7.9,19.5-7.9c8.1,0,15.4,3,19.7,8
			c0.7,0.9,0.5,2.2-0.4,2.8L46.2,12.6z"/>
	</g>
</g>
</svg>
