<?xml version="1.0" encoding="utf-8"?>
<!-- Generator: Adobe Illustrator 19.1.1, SVG Export Plug-In . SVG Version: 6.00 Build 0)  -->
<svg version="1.1" id="Layer_1" xmlns="http://www.w3.org/2000/svg" xmlns:xlink="http://www.w3.org/1999/xlink" x="0px" y="0px"
	 viewBox="0 0 66 50" style="enable-background:new 0 0 66 50;" xml:space="preserve">
<g id="Favorite">
	<g>
		<path style="fill:#FF3671;" d="M32.9,47c-0.6,0-1.1-0.2-1.7-0.5C17.9,38.4,11,30.8,10.4,23.4l0-0.2l0-2.2
			c0.7-7.2,6.2-11,11.1-11.4c0.7-0.1,1.4-0.1,2-0.1c4.6,0,7.2,1.6,9.4,3.5c2.2-2,4.8-3.5,9.4-3.5c0.7,0,1.3,0,2,0.1
			c4.9,0.4,10.4,4.1,11.1,11.4l0,0.2l0,2.2c-0.7,7.4-7.5,14.9-20.9,23.1C34.1,46.8,33.5,47,32.9,47z M14.4,23.2
			C15,29,21.2,35.6,32.9,42.8c11.7-7.2,18-13.8,18.5-19.7v-1.8c-0.5-4.9-4.2-7.4-7.4-7.7l0,0c-0.6-0.1-1.1-0.1-1.7-0.1
			c-3.7,0-5.5,1.2-7.9,3.6c-0.8,0.8-2.3,0.8-3.1,0c-2.4-2.4-4.2-3.6-7.9-3.6c-0.6,0-1.1,0-1.7,0.1c-3.2,0.3-6.9,2.8-7.4,7.7V23.2z"
			/>
	</g>
	<g>
		<path style="fill:#FF3671;" d="M64.4,3.7c-0.3-0.4-0.6-0.7-1.1-0.8c-0.5-0.1-0.9,0-1.3,0.2l-9,5.9c-0.4,0.3-0.7,0.6-0.8,1.1
			s0,0.9,0.2,1.3c0.3,0.5,0.9,0.8,1.5,0.8c0.3,0,0.7-0.1,1-0.3l9-5.9C64.7,5.6,64.9,4.5,64.4,3.7z"/>
		<path style="fill:#FF3671;" d="M63.3,11.3c-0.5-0.1-0.9,0-1.3,0.2l-4.8,2.9c-0.4,0.2-0.7,0.6-0.8,1.1c-0.1,0.5,0,0.9,0.2,1.3
			c0.2,0.4,0.6,0.7,1.1,0.8c0.1,0,0.3,0.1,0.4,0.1c0.3,0,0.6-0.1,0.9-0.3l4.8-2.9c0.8-0.5,1.1-1.6,0.6-2.4
			C64.1,11.7,63.7,11.4,63.3,11.3z"/>
		<path style="fill:#FF3671;" d="M62.1,19.4c-0.5-0.1-0.9,0-1.3,0.2l-2.9,1.7c-0.4,0.2-0.7,0.6-0.8,1.1c-0.1,0.5,0,0.9,0.2,1.3
			c0.2,0.4,0.6,0.7,1.1,0.8c0.1,0,0.3,0.1,0.4,0.1c0.3,0,0.6-0.1,0.9-0.2l2.9-1.7c0.4-0.2,0.7-0.6,0.8-1.1c0.1-0.5,0-0.9-0.2-1.3
			C62.9,19.8,62.6,19.5,62.1,19.4z"/>
		<path style="fill:#FF3671;" d="M12.6,9l-9-5.9C2.8,2.6,1.7,2.9,1.2,3.7C0.9,4.1,0.8,4.5,0.9,5C1,5.5,1.3,5.8,1.7,6.1l9,5.9
			c0.3,0.2,0.6,0.3,1,0.3c0.6,0,1.1-0.3,1.5-0.8c0.3-0.4,0.3-0.9,0.2-1.3C13.3,9.7,13,9.3,12.6,9z"/>
		<path style="fill:#FF3671;" d="M8.4,14.3l-4.8-2.9c-0.4-0.2-0.9-0.3-1.3-0.2c-0.5,0.1-0.8,0.4-1.1,0.8C1,12.5,0.9,12.9,1,13.4
			c0.1,0.5,0.4,0.8,0.8,1.1l4.8,2.9c0.3,0.2,0.6,0.3,0.9,0.3c0.6,0,1.2-0.3,1.5-0.8c0.2-0.4,0.3-0.9,0.2-1.3
			C9.1,15,8.8,14.6,8.4,14.3z"/>
		<path style="fill:#FF3671;" d="M7.7,21.3l-2.9-1.7c-0.4-0.2-0.9-0.3-1.3-0.2c-0.5,0.1-0.8,0.4-1.1,0.8C1.9,21,2.1,22.1,3,22.6
			l2.9,1.7c0.3,0.2,0.6,0.2,0.9,0.2c0.6,0,1.2-0.3,1.5-0.9C8.8,22.9,8.5,21.8,7.7,21.3z"/>
	</g>
</g>
</svg>
