<?xml version="1.0" encoding="utf-8"?>
<!-- Generator: Adobe Illustrator 19.1.1, SVG Export Plug-In . SVG Version: 6.00 Build 0)  -->
<svg version="1.1" id="Layer_1" xmlns="http://www.w3.org/2000/svg" xmlns:xlink="http://www.w3.org/1999/xlink" x="0px" y="0px"
	 viewBox="0 0 73.8 54.7" style="enable-background:new 0 0 73.8 54.7;" xml:space="preserve">
<g id="Favorite">
	<g>
		<g>
			<path style="fill:#FF3671;" d="M27.2,51l-1-0.6C10.7,41.1,2.8,32.5,2,24.2L2,24l0-2.5c0.7-8,6.9-12.1,12.3-12.6
				c0.8-0.1,1.5-0.1,2.3-0.1c5.2,0,8.1,1.8,10.6,4.1c2.5-2.3,5.5-4.1,10.6-4.1c0.7,0,1.5,0,2.3,0.1c5.4,0.4,11.5,4.6,12.3,12.6
				l0,0.2l0,2.5c-0.8,8.4-8.7,16.9-24.1,26.3L27.2,51z M6,23.9c0.7,6.7,7.8,14.3,21.2,22.5c13.4-8.2,20.5-15.8,21.2-22.5v-2.1
				c-0.6-5.7-4.9-8.6-8.6-8.9l0,0c-0.7-0.1-1.3-0.1-1.9-0.1c-4.7,0-6.7,1.7-9.2,4.3l-1.4,1.5l-1.4-1.5c-2.5-2.6-4.6-4.3-9.2-4.3
				c-0.6,0-1.3,0-1.9,0.1c-3.8,0.3-8,3.2-8.6,8.9V23.9z"/>
		</g>
		<g>
			<path style="fill:#FF3671;" d="M55,34.1c-0.6-0.8-0.6-1.8,0.1-2.6c2.3-2.5,3.7-5.8,3.7-9.3c0-3.4-1.3-6.7-3.6-9.2
				c-0.6-0.7-0.7-1.8-0.1-2.5l0.1-0.1c0.7-0.9,2.1-0.9,2.9-0.1c3,3.3,4.6,7.5,4.6,12c0,4.5-1.7,8.9-4.8,12.1
				c-0.8,0.8-2.1,0.8-2.9-0.1L55,34.1z"/>
		</g>
		<g>
			<path style="fill:#FF3671;" d="M60.9,41.4c-0.5-0.8-0.4-1.9,0.4-2.6c4-3.5,6.6-9.8,6.6-16.5c0-6.7-2.5-12.9-6.4-16.4
				c-0.7-0.7-0.9-1.7-0.4-2.6l0.1-0.1c0.6-0.9,2-1.2,2.8-0.4c4.9,4.3,7.9,11.5,7.9,19.5c0,8.1-3,15.4-8,19.7
				c-0.9,0.7-2.2,0.5-2.8-0.4L60.9,41.4z"/>
		</g>
	</g>
</g>
</svg>
