<?xml version="1.0" encoding="utf-8"?>
<!-- Generator: Adobe Illustrator 19.1.1, SVG Export Plug-In . SVG Version: 6.00 Build 0)  -->
<svg version="1.1" id="Layer_1" xmlns="http://www.w3.org/2000/svg" xmlns:xlink="http://www.w3.org/1999/xlink" x="0px" y="0px"
	 viewBox="0 0 66 66" style="enable-background:new 0 0 66 66;" xml:space="preserve">
<g id="Favorite">
	<g>
		<path style="fill:#B24CD8;" d="M65,31h-6.5c-1-12.5-11-22.5-23.5-23.5V1h-4v6.5C18.5,8.5,8.5,18.5,7.5,31H1v4h6.5
			c1,12.5,11,22.5,23.5,23.5V65h4v-6.5c12.5-1,22.5-11,23.5-23.5H65V31z M35,54.5V48h-4v6.5C20.7,53.5,12.5,45.3,11.5,35H18v-4h-6.5
			c0.9-10.3,9.2-18.6,19.5-19.5V18h4v-6.5c10.3,0.9,18.6,9.2,19.5,19.5H48v4h6.5C53.5,45.3,45.3,53.5,35,54.5z"/>
		<path style="fill:#B24CD8;" d="M38.5,23.2c-2.7-0.2-4.3,0.4-5.5,1.3c-1.2-0.9-2.9-1.6-5.5-1.3c-2.8,0.2-5.8,2.5-6.2,6.3l0,1.1
			l0,0.2c0.3,3.8,3.7,7.6,10.3,11.7c0.4,0.2,0.9,0.4,1.3,0.4c0.5,0,0.9-0.1,1.3-0.4c6.6-4,10-7.8,10.3-11.7l0-1.1l0-0.2
			C44.3,25.7,41.3,23.4,38.5,23.2z M40.7,30.5c-0.2,1.6-1.7,4.3-7.7,8.1c-6-3.8-7.5-6.5-7.7-8.1v-0.7c0.2-1.9,1.7-2.6,2.5-2.6
			c0.2,0,0.5,0,0.7,0c1.4,0,2,0.4,3,1.4c0.8,0.8,2.1,0.8,2.9,0c0.9-1,1.5-1.4,3-1.4c0.2,0,0.5,0,0.7,0l0,0c0.8,0.1,2.3,0.7,2.5,2.6
			V30.5z"/>
	</g>
</g>
</svg>
