<?xml version="1.0" encoding="utf-8"?>
<!-- Generator: Adobe Illustrator 19.1.1, SVG Export Plug-In . SVG Version: 6.00 Build 0)  -->
<svg version="1.1" id="Layer_1" xmlns="http://www.w3.org/2000/svg" xmlns:xlink="http://www.w3.org/1999/xlink" x="0px" y="0px"
	 viewBox="0 0 66 66" style="enable-background:new 0 0 66 66;" xml:space="preserve">
<path style="fill:#FF3671;" d="M60,3.8L40.5,3.6c0,0,0,0,0,0c-0.5,0-1,0.2-1.4,0.6c-0.4,0.4-0.6,0.9-0.6,1.4c0,0.5,0.2,1,0.6,1.4
	c0.4,0.4,0.9,0.6,1.4,0.6l15.4,0.1L37.6,25.8c-14.7-3.5-24.6-3-30.1,1.6L6,29l-0.1,0.1C1.3,34.6,2.6,41,5.7,44.7
	c0.4,0.5,0.9,1,1.3,1.5c3.4,3.4,6.4,4,9,4.1c0.1,2.6,0.7,5.7,4.1,9c0.5,0.5,0.9,0.9,1.5,1.3c1.9,1.7,4.7,2.8,7.7,2.8
	c2.6,0,5.4-0.9,7.9-3l1.5-1.5l0.1-0.1c4.6-5.5,5.1-15.4,1.6-30.1l18.3-18.3v15.4c0,1.1,0.9,1.9,1.9,1.9c1.1,0,1.9-0.9,1.9-1.9V6.3
	C62.6,4.9,61.5,3.8,60,3.8z M24.1,57.6c-0.4-0.4-0.8-0.7-1.2-1.1c-2.8-2.8-3-5.1-3-8.2l0-0.5c0-0.4-0.1-0.7-0.4-1
	c-0.3-0.3-0.6-0.4-1-0.4c0,0,0,0,0,0l-0.5,0c-3.1,0-5.4-0.2-8.2-3C9.4,43,9,42.6,8.6,42.2c-2.1-2.4-2.9-6.8,0.2-10.5l1.3-1.3
	c4.5-3.7,13.4-3.9,26.6-0.8c3.1,13.2,2.9,22.1-0.8,26.6l-1.3,1.3C30.9,60.5,26.5,59.7,24.1,57.6z"/>
<g id="Favorite">
</g>
</svg>
