<?xml version="1.0" encoding="utf-8"?>
<!-- Generator: Adobe Illustrator 19.1.1, SVG Export Plug-In . SVG Version: 6.00 Build 0)  -->
<svg version="1.1" id="Layer_1" xmlns="http://www.w3.org/2000/svg" xmlns:xlink="http://www.w3.org/1999/xlink" x="0px" y="0px"
	 viewBox="0 0 66 66" style="enable-background:new 0 0 66 66;" xml:space="preserve">
<g id="Favorite">
</g>
<path style="fill:#FF3671;" d="M42.1,5l16.1,0.1L39,24.3c-9-7.7-22.6-7.2-31.2,1.3c-9,9-9,23.6,0,32.6s23.6,9,32.6,0
	c8.5-8.5,9-22.1,1.3-31.1L61,7.8L61,24c0,1.1,0.9,2,2,2h0c1.1,0,2-0.9,2-2V3.8c0-1.4-1.2-2.6-2.6-2.6L42.1,1.1c-1.1,0-2,0.9-2,1.9
	C40.1,4.1,41,5,42.1,5z M37.6,55.4c-7.4,7.4-19.5,7.4-26.9,0s-7.4-19.5,0-26.9s19.5-7.4,26.9,0S45,47.9,37.6,55.4z"/>
</svg>
