<?xml version="1.0" encoding="utf-8"?>
<!-- Generator: Adobe Illustrator 19.1.1, SVG Export Plug-In . SVG Version: 6.00 Build 0)  -->
<svg version="1.1" id="Layer_1" xmlns="http://www.w3.org/2000/svg" xmlns:xlink="http://www.w3.org/1999/xlink" x="0px" y="0px"
	 viewBox="0 0 66 66" style="enable-background:new 0 0 66 66;" xml:space="preserve">
<g id="Favorite">
	<path style="fill:#FF3671;" d="M60.6,56c-0.2-9.7-5.6-18.4-14-22.8c2-2.6,3.2-5.9,3.2-9.5l0-5.8l0-0.1c-0.3-9-7.5-16.1-16.5-16.1
		c-9.1,0-16.5,7.4-16.5,16.5c0,0.2,0,5.4,0,5.4c0,3.5,1.2,6.8,3.2,9.4C11.6,37.6,6.2,46.3,6,56l-0.2,8.7l4,0.1l0.2-8.7
		c0.2-8.7,5.2-16.4,12.9-19.9c2.7,2.1,6,3.3,9.7,3.3h1.5c3.6,0,7-1.3,9.7-3.3c7.7,3.5,12.7,11.2,12.9,19.9l0.2,8.7l4-0.1L60.6,56z
		 M45.8,17C34.1,15.5,30,9.6,28.7,6.7c1.4-0.6,3-0.9,4.6-0.9C39.8,5.8,45.1,10.6,45.8,17z M25.3,8.7c0.7,1.4,1.8,3.2,3.6,5
		c-2.2,2.9-6.1,3-8,2.8C21.3,13.5,22.9,10.7,25.3,8.7z M19.8,16.5L19.8,16.5L19.8,16.5z M34.1,35.5h-1.5c-6.5,0-11.8-5.3-11.8-11.8
		c0,0,0-1.6,0-3.1c0.4,0,0.7,0,1.1,0c3.3,0,7.4-1,10.1-4.3c3.2,2.2,7.7,4,13.9,4.7l0,2.7C45.8,30.2,40.6,35.5,34.1,35.5z"/>
	<path style="fill:#FF3671;" d="M39.5,43.3c-2.8-0.2-4.4,0.4-5.9,1.4c-1.4-1.1-3.2-1.7-5.9-1.4c-2.9,0.2-6.1,2.6-6.5,6.6l0,1.2
		l0,0.2c0.4,4.1,4.1,8.2,11.3,12.6l1,0.6l1-0.6c7.2-4.4,10.9-8.5,11.3-12.6l0-1.2l0-0.2C45.6,45.9,42.4,43.6,39.5,43.3z M41.9,51
		c-0.2,1.8-1.9,4.7-8.3,8.8c-6.5-4.1-8.1-7-8.3-8.8v-0.8c0.2-2.1,1.9-2.8,2.8-2.9c0.3,0,0.5,0,0.8,0c1.5,0,2.2,0.4,3.2,1.4
		c0.9,0.9,2.3,0.9,3.2,0c1-1,1.7-1.4,3.2-1.4c0.2,0,0.5,0,0.8,0l0,0c0.9,0.1,2.6,0.8,2.8,2.9V51z"/>
</g>
</svg>
