<?xml version="1.0" encoding="utf-8"?>
<!-- Generator: Adobe Illustrator 19.1.1, SVG Export Plug-In . SVG Version: 6.00 Build 0)  -->
<svg version="1.1" id="Layer_1" xmlns="http://www.w3.org/2000/svg" xmlns:xlink="http://www.w3.org/1999/xlink" x="0px" y="0px"
	 viewBox="0 0 66 66" style="enable-background:new 0 0 66 66;" xml:space="preserve">
<g id="Favorite">
	<path style="fill:#FF3671;" d="M47,33.2c1.9-2.6,3.1-5.8,3.1-9.3l0-5.7l0-0.1C49.8,9.3,42.7,2.4,33.8,2.4c-9,0-16.3,7.3-16.3,16.3
		c0,0.2,0,5.3,0,5.3c0,3.5,1.2,6.7,3.1,9.2c-3.4,1.8-6.4,4.4-8.7,7.6c-2.5,0.7-4.7,2.9-5.1,6.3l0,1.2l0,0.2C7,49.2,7.2,50,7.5,50.8
		C7.2,52.4,7,54,7,55.6l-0.2,8.6l4,0.1l0.2-8.5c0,0,0-0.1,0-0.1c1.8,1.7,4.1,3.4,7,5.2l1,0.6l1-0.6c7.1-4.3,10.7-8.3,11.1-12.4
		l0-1.2l0-0.2c-0.4-4-3.5-6.3-6.4-6.5c-2.7-0.2-4.3,0.4-5.7,1.4c-0.6-0.4-1.2-0.8-2-1c1.9-2,4.1-3.5,6.5-4.7c2.6,2,5.9,3.3,9.5,3.3
		h1.4c3.6,0,6.9-1.2,9.5-3.3c7.5,3.5,12.4,11,12.6,19.5l0.2,8.6l4-0.1l-0.2-8.6C60.4,46.1,55.2,37.5,47,33.2z M46,17.3
		c-11.2-1.5-15.3-7-16.8-10c1.4-0.6,3-0.9,4.7-0.9C40.2,6.4,45.3,11.1,46,17.3z M25.8,9.4c0.7,1.4,1.8,3,3.4,4.7
		c-2.1,2.7-5.5,3-7.5,2.9C22.1,14,23.6,11.3,25.8,9.4z M19.1,46.5C19.1,46.5,19.1,46.5,19.1,46.5c0.6,0,1.2-0.2,1.6-0.7
		c0.9-0.9,1.6-1.4,3.1-1.4c0.2,0,0.5,0,0.7,0l0,0c0.8,0.1,2.5,0.8,2.7,2.8v0.8c-0.2,1.7-1.8,4.6-8.1,8.6c-6.3-4-7.9-6.8-8.1-8.6
		v-0.8c0.2-2.1,1.9-2.8,2.7-2.8c0.3,0,0.5,0,0.7,0c1.5,0,2.1,0.4,3.1,1.4C17.9,46.2,18.5,46.5,19.1,46.5z M34.5,35.5h-1.4
		c-6.3,0-11.5-5.2-11.5-11.5c0,0,0-1.5,0-3c0.2,0,0.4,0,0.6,0c3.3,0,7.4-1,10.1-4.4c3.2,2.2,7.6,4,13.8,4.7l0,2.6
		C46.1,30.3,40.9,35.5,34.5,35.5z"/>
</g>
</svg>
