<?xml version="1.0" encoding="utf-8"?>
<!-- Generator: Adobe Illustrator 19.1.1, SVG Export Plug-In . SVG Version: 6.00 Build 0)  -->
<svg version="1.1" id="Layer_1" xmlns="http://www.w3.org/2000/svg" xmlns:xlink="http://www.w3.org/1999/xlink" x="0px" y="0px"
	 viewBox="0 0 66 66" style="enable-background:new 0 0 66 66;" xml:space="preserve">
<linearGradient id="SVGID_1_" gradientUnits="userSpaceOnUse" x1="52.2041" y1="26.3038" x2="0.7373" y2="41.0617">
	<stop  offset="0" style="stop-color:#FF3671"/>
	<stop  offset="0.1015" style="stop-color:#DD5990"/>
	<stop  offset="0.1978" style="stop-color:#C472A6"/>
	<stop  offset="0.285" style="stop-color:#B582B3"/>
	<stop  offset="0.3548" style="stop-color:#B087B8"/>
	<stop  offset="0.492" style="stop-color:#AD8ABB"/>
	<stop  offset="0.6094" style="stop-color:#A295C4"/>
	<stop  offset="0.7196" style="stop-color:#90A7D4"/>
	<stop  offset="0.8247" style="stop-color:#78BFEA"/>
	<stop  offset="0.9032" style="stop-color:#60D7FF"/>
</linearGradient>
<path style="fill:url(#SVGID_1_);" d="M48.2,55.4L11.8,4c-0.6-0.8-1.4-1.2-2.4-1.2h0c-1.6,0-2.9,1.3-2.9,2.9v54.9
	c0,1.2,1,2.2,2.2,2.2h0c1.2,0,2.2-1,2.2-2.2V10.2l36.4,51.4c0.6,0.8,1.4,1.2,2.4,1.2h0c1.6,0,2.9-1.3,2.9-2.9V27.7
	c0-1.2-1-2.2-2.2-2.2h0c-1.2,0-2.2,1-2.2,2.2V55.4z"/>
<g id="Favorite">
	<linearGradient id="SVGID_2_" gradientUnits="userSpaceOnUse" x1="57.843" y1="2.2015" x2="42.8461" y2="15.7047">
		<stop  offset="0.1452" style="stop-color:#FF3671"/>
		<stop  offset="0.3769" style="stop-color:#FA3B75"/>
		<stop  offset="0.6458" style="stop-color:#EC4982"/>
		<stop  offset="0.8548" style="stop-color:#DC5990"/>
	</linearGradient>
	<path style="fill:url(#SVGID_2_);" d="M56.4,2.8c-0.4,0-0.7,0-1,0c-2.5,0-3.8,0.9-5.1,2.4c-1.4-1.4-2.6-2.4-5.1-2.4
		c-0.3,0-0.7,0-1,0C41.9,3,39.4,4.7,39,8v1.1c0.3,3.2,3.1,7.1,11.2,12c8.1-4.9,10.9-8.8,11.2-12V8C61.1,4.7,58.6,3,56.4,2.8z"/>
</g>
</svg>
