<?xml version="1.0" encoding="utf-8"?>
<!-- Generator: Adobe Illustrator 19.1.1, SVG Export Plug-In . SVG Version: 6.00 Build 0)  -->
<svg version="1.1" id="Layer_1" xmlns="http://www.w3.org/2000/svg" xmlns:xlink="http://www.w3.org/1999/xlink" x="0px" y="0px"
	 viewBox="0 0 66 66" style="enable-background:new 0 0 66 66;" xml:space="preserve">
<path style="fill:#FF3671;" d="M48.2,55.4L11.8,4c-0.6-0.8-1.4-1.2-2.4-1.2h0c-1.6,0-2.9,1.3-2.9,2.9v54.9c0,1.2,1,2.2,2.2,2.2h0
	c1.2,0,2.2-1,2.2-2.2V10.2l36.4,51.4c0.6,0.8,1.4,1.2,2.4,1.2h0c1.6,0,2.9-1.3,2.9-2.9V27.7c0-1.2-1-2.2-2.2-2.2h0
	c-1.2,0-2.2,1-2.2,2.2V55.4z"/>
<g id="Favorite">
	<path style="fill:#FF3671;" d="M56.4,2.8c-0.4,0-0.7,0-1,0c-2.5,0-3.8,0.9-5.1,2.4c-1.4-1.4-2.6-2.4-5.1-2.4c-0.3,0-0.7,0-1,0
		C41.9,3,39.4,4.7,39,8v1.1c0.3,3.2,3.1,7.1,11.2,12c8.1-4.9,10.9-8.8,11.2-12V8C61.1,4.7,58.6,3,56.4,2.8z"/>
</g>
</svg>
