<?xml version="1.0" encoding="utf-8"?>
<!-- Generator: Adobe Illustrator 19.1.1, SVG Export Plug-In . SVG Version: 6.00 Build 0)  -->
<svg version="1.1" id="Layer_1" xmlns="http://www.w3.org/2000/svg" xmlns:xlink="http://www.w3.org/1999/xlink" x="0px" y="0px"
	 viewBox="0 0 66 66" style="enable-background:new 0 0 66 66;" xml:space="preserve">
<g id="Favorite">
</g>
<g>
	<path style="fill:#BDC8D1;" d="M36.2,65.2h-5.8c-2.7,0-5-1.9-5.6-4.6l-0.6-3.3c-0.4-0.1-0.8-0.3-1.1-0.5L21,58.2
		c-2.2,1.5-5.3,1.2-7.2-0.7l-4.1-4.1c-1.9-1.9-2.2-4.9-0.7-7.2l1.4-2c-0.2-0.5-0.4-0.9-0.6-1.4l-3.4-0.7c-2.7-0.5-4.6-2.9-4.6-5.6
		v-5.8c0-2.7,1.9-5,4.6-5.6l3.7-0.7c0.2-0.4,0.4-0.9,0.6-1.3l-2-3c-1.5-2.2-1.2-5.3,0.7-7.2l4.1-4.1c1.9-1.9,4.9-2.2,7.2-0.7
		l3.5,2.3l0.7-3.8c0.5-2.7,2.9-4.6,5.6-4.6h5.8c2.7,0,5,1.9,5.6,4.6l0.8,4.2c0.1,0,0.2,0.1,0.2,0.1l4.2-2.9c2.2-1.5,5.3-1.2,7.2,0.7
		l4.1,4.1c1.9,1.9,2.2,4.9,0.7,7.2l-2.9,4.2l4,0.8c2.7,0.5,4.6,2.9,4.6,5.6v5.8c0,2.7-1.9,5-4.6,5.6l-3.8,0.7c0,0,0,0,0,0l2.3,3.4
		c1.5,2.2,1.2,5.3-0.7,7.2l-4.1,4.1c-1.9,1.9-4.9,2.2-7.2,0.7l-2.7-1.8c-0.5,0.3-1.1,0.5-1.6,0.7l-0.7,3.4
		C41.3,63.2,39,65.2,36.2,65.2z M22.8,52.2l1,0.5c0.9,0.4,1.8,0.8,2.8,1.2l1.1,0.4l1.1,5.5c0.2,0.8,0.8,1.3,1.6,1.3h5.8
		c0.8,0,1.5-0.6,1.6-1.3l1.1-5.6l1.1-0.4c1.1-0.4,2.2-0.9,3.2-1.4l1.1-0.6l4.7,3.1c0.7,0.4,1.5,0.4,2.1-0.2l4.1-4.1
		c0.6-0.6,0.6-1.4,0.2-2.1l-3.5-5.1l0.4-1c0.3-0.6,0.5-1.2,0.7-1.8l0.4-1.1l6.1-1.2c0.8-0.2,1.3-0.8,1.3-1.6v-5.8
		c0-0.8-0.6-1.5-1.3-1.6l-6.3-1.2l-0.4-1.1c-0.2-0.6-0.5-1.1-0.7-1.7l-0.5-1l4.1-6.1c0.4-0.7,0.4-1.5-0.2-2.1l-4.1-4.1
		c-0.6-0.6-1.5-0.6-2.1-0.2l-6.1,4.1l-1-0.5c-0.6-0.3-1.3-0.6-2-0.8l-1.1-0.4l-1.3-6.4c-0.2-0.8-0.8-1.3-1.6-1.3h-5.8
		c-0.8,0-1.5,0.6-1.6,1.3l-1.2,6.3l-1.1,0.4c-0.6,0.2-1.1,0.4-1.6,0.6l-1,0.4l-5.5-3.7c-0.7-0.4-1.5-0.4-2.1,0.2l-4.1,4.1
		c-0.6,0.6-0.6,1.4-0.2,2.1l3.4,5L14.8,24c-0.5,0.9-0.9,1.9-1.3,2.9L13.1,28l-5.9,1.1c-0.8,0.2-1.3,0.8-1.3,1.6v5.8
		c0,0.8,0.6,1.5,1.3,1.6l5.7,1.1l0.4,1.1c0.3,1,0.8,2.1,1.3,3l0.5,1l-2.7,4c-0.4,0.7-0.4,1.5,0.2,2.1l4.1,4.1
		c0.6,0.6,1.5,0.6,2.1,0.2L22.8,52.2z"/>
</g>
<g>
	<path style="fill:#BDC8D1;" d="M33.8,47C26.2,47,20,40.8,20,33.2s6.2-13.8,13.8-13.8s13.8,6.2,13.8,13.8S41.4,47,33.8,47z
		 M33.8,23.4c-5.4,0-9.8,4.4-9.8,9.8s4.4,9.8,9.8,9.8c5.4,0,9.8-4.4,9.8-9.8S39.2,23.4,33.8,23.4z"/>
</g>
</svg>
