<?xml version="1.0" encoding="utf-8"?>
<!-- Generator: Adobe Illustrator 19.1.1, SVG Export Plug-In . SVG Version: 6.00 Build 0)  -->
<svg version="1.1" id="Layer_1" xmlns="http://www.w3.org/2000/svg" xmlns:xlink="http://www.w3.org/1999/xlink" x="0px" y="0px"
	 viewBox="0 0 66 58" style="enable-background:new 0 0 66 58;" xml:space="preserve">
<g>
	<g>
		<path style="fill:#FF3671;" d="M20.8,31.7c0.6-0.6,1.7-0.7,2.3-0.1c3.5,3.1,7,4.6,10.6,4.4c4.3-0.2,7.6-2.8,9.2-4.3
			c0.6-0.6,1.6-0.6,2.2-0.1l0.1,0.1c0.8,0.6,0.8,1.8,0.1,2.5c-2,1.9-6,5-11.4,5.2c-4.5,0.2-8.9-1.5-13.1-5.3
			C20.1,33.5,20,32.4,20.8,31.7L20.8,31.7z"/>
		<path style="fill:#FF3671;" d="M22,30.9c0.5,0,0.9,0.2,1.3,0.5c3.4,3,6.9,4.5,10.4,4.3c4.2-0.2,7.4-2.7,9-4.2
			c0.7-0.7,1.8-0.7,2.6-0.1l0.1,0.1c0.4,0.4,0.7,0.9,0.7,1.4c0,0.6-0.2,1.1-0.6,1.5c-2,1.9-6.1,5-11.5,5.3c-4.6,0.2-9-1.6-13.3-5.4
			C20.2,34,20,33.5,20,33c0-0.5,0.2-1.1,0.6-1.4l0.1-0.1C21,31.1,21.5,30.9,22,30.9z M33.1,36.3c-3.4,0-6.8-1.5-10.2-4.5
			c-0.6-0.5-1.5-0.5-2,0l-0.1,0.1c-0.3,0.3-0.4,0.7-0.4,1.1c0,0.4,0.2,0.8,0.5,1c4.1,3.7,8.5,5.5,12.9,5.2c5.3-0.3,9.3-3.4,11.2-5.2
			c0.3-0.3,0.5-0.7,0.5-1.1c0-0.4-0.2-0.8-0.5-1.1l-0.1-0.1c-0.6-0.5-1.4-0.4-1.9,0.1c-1.6,1.5-5,4.2-9.3,4.4
			C33.5,36.3,33.3,36.3,33.1,36.3z"/>
	</g>
</g>
<g id="Favorite">
	<g>
		<path style="fill:#FF3671;" d="M32.9,56.3l-1-0.6c-19.9-12-30-22.9-31-33.5l0-0.2l0-3.1C1.9,8.8,9.5,3.6,16.3,3.1
			c1-0.1,1.9-0.1,2.9-0.1c6.8,0,10.5,2.4,13.8,5.5c3.3-3.1,7-5.5,13.8-5.5c1,0,1.9,0,2.9,0.1C56.3,3.6,64,8.8,64.9,18.8l0,0.2l0,3.1
			c-1,10.6-11.1,21.6-31,33.5L32.9,56.3z M4.9,21.9c0.9,8.9,10.3,18.9,28,29.8c17.7-10.8,27.1-20.8,28-29.8v-2.8
			c-0.8-7.7-6.6-11.6-11.7-12.1l0,0c-0.9-0.1-1.7-0.1-2.5-0.1c-6.3,0-9.1,2.4-12.3,5.7l-1.4,1.5l-1.4-1.5c-3.3-3.4-6.1-5.7-12.4-5.7
			c-0.8,0-1.7,0-2.5,0.1C11.5,7.5,5.7,11.4,4.9,19.1V21.9z"/>
	</g>
	<g>
		<circle style="fill:#FF3671;" cx="22.8" cy="19.9" r="3.5"/>
	</g>
	<g>
		<circle style="fill:#FF3671;" cx="43.3" cy="19.9" r="3.5"/>
	</g>
</g>
</svg>
