<?xml version="1.0" encoding="utf-8"?>
<!-- Generator: Adobe Illustrator 19.1.1, SVG Export Plug-In . SVG Version: 6.00 Build 0)  -->
<svg version="1.1" id="Layer_1" xmlns="http://www.w3.org/2000/svg" xmlns:xlink="http://www.w3.org/1999/xlink" x="0px" y="0px"
	 viewBox="0 0 66 66" style="enable-background:new 0 0 66 66;" xml:space="preserve">
<g id="Favorite">
	<g>
		<path style="fill:#FF3671;" d="M46.3,19.9l16.4,2.3c2.8,0.4,3.9,3.8,1.9,5.8L52.8,39.6c-0.8,0.8-1.2,1.9-1,3L54.8,59
			c0.5,2.8-2.4,4.9-4.9,3.6L35.1,55c-1-0.5-2.2-0.5-3.2,0l-14.6,7.8c-2.5,1.3-5.4-0.8-5-3.6L15,42.9c0.2-1.1-0.2-2.2-1-3l-12-11.5
			c-2-2-0.9-5.4,1.9-5.8l16.4-2.5c1.1-0.2,2.1-0.9,2.6-1.9l7.2-14.9c1.2-2.5,4.8-2.6,6.1,0L43.7,18C44.2,19.1,45.2,19.7,46.3,19.9z"
			/>
	</g>
</g>
</svg>
