<svg id="Layer_1" data-name="Layer 1" xmlns="http://www.w3.org/2000/svg" xmlns:xlink="http://www.w3.org/1999/xlink" viewBox="0 0 781.45 206.97"><defs><style>.cls-1{fill:url(#linear-gradient);}.cls-2{fill:url(#linear-gradient-3);}</style><linearGradient id="linear-gradient" x1="346" y1="256.86" x2="345.18" y2="256.26" gradientTransform="matrix(183.86, 0, 0, -206.97, -63425.02, 53223.48)" gradientUnits="userSpaceOnUse"><stop offset="0" stop-color="#ff3671"/><stop offset="1" stop-color="#60d7ff"/></linearGradient><linearGradient id="linear-gradient-3" x1="346.89" y1="256.7" x2="346.79" y2="255.66" gradientTransform="matrix(551.45, 0, 0, -197.88, -190747.9, 50894.57)" xlink:href="#linear-gradient"/></defs><title>neon-logo-full</title><g id="Page-1"><g id="N-_-N-Copy-_-EON" data-name="N-+-N-Copy-+-EON"><g id="N-_-N-Copy" data-name="N-+-N-Copy"><path id="N" class="cls-1" d="M183.07,97.94V234h-8.64L33.89,35.57H33.31V234H27.55V28.37h8.64L176.74,226.8h0.58V97.94h5.76Zm-7.47-18.3c-16.33-14.24-27-23.83-27-35.59a16.91,16.91,0,0,1,17.28-17A19,19,0,0,1,180,33.53,19,19,0,0,1,194.14,27a16.91,16.91,0,0,1,17.28,17c0,11.76-10.68,21.35-27,35.59L180,84Z" transform="translate(-27.55 -27.03)"/><path id="N-Copy" class="cls-1" d="M183.07,97.94V234h-8.64L33.89,35.57H33.31V234H27.55V28.37h8.64L176.74,226.8h0.58V97.94h5.76Zm-7.47-18.3c-16.33-14.24-27-23.83-27-35.59a16.91,16.91,0,0,1,17.28-17A19,19,0,0,1,180,33.53,19,19,0,0,1,194.14,27a16.91,16.91,0,0,1,17.28,17c0,11.76-10.68,21.35-27,35.59L180,84Z" transform="translate(-27.55 -27.03)"/></g><path id="EON" class="cls-2" d="M263.07,227.15V132.76H380.92v-5.52H263.07V41.12h125.3V35.6H257.55V232.67H389.48v-5.52H263.07Zm164.22-92.07a120.18,120.18,0,0,1,5.93-38A92.81,92.81,0,0,1,450.61,65.7,82.6,82.6,0,0,1,479,44.33q17-7.91,39.05-7.91t39.05,7.91A82.6,82.6,0,0,1,585.58,65.7,92.81,92.81,0,0,1,603,97.09a120.18,120.18,0,0,1,5.93,38,120.18,120.18,0,0,1-5.93,38,92.81,92.81,0,0,1-17.39,31.39,81.19,81.19,0,0,1-28.43,21.24q-17,7.78-39.05,7.78T479,225.7a81.19,81.19,0,0,1-28.43-21.24,92.81,92.81,0,0,1-17.39-31.39,120.18,120.18,0,0,1-5.93-38h0Zm5.52,0A118.86,118.86,0,0,0,439,172.54a87.51,87.51,0,0,0,16.84,29.55,76.11,76.11,0,0,0,26.63,19.39q15.73,7,35.6,7t35.6-7a76.11,76.11,0,0,0,26.63-19.39,87.51,87.51,0,0,0,16.84-29.55,116.09,116.09,0,0,0,0-74.92,87.51,87.51,0,0,0-16.84-29.55A76.11,76.11,0,0,0,553.7,48.68q-15.73-7-35.6-7t-35.6,7a76.11,76.11,0,0,0-26.63,19.39A87.51,87.51,0,0,0,439,97.62a118.86,118.86,0,0,0-6.21,37.46h0ZM660,35.6V232.67h5.52V42.5H666L800.72,232.67H809V35.6h-5.52V225.77h-0.55L668.24,35.6H660Z" transform="translate(-27.55 -27.03)"/><path id="EON-Copy" class="cls-2" d="M263.07,227.15V132.76H380.92v-5.52H263.07V41.12h125.3V35.6H257.55V232.67H389.48v-5.52H263.07Zm164.22-92.07a120.18,120.18,0,0,1,5.93-38A92.81,92.81,0,0,1,450.61,65.7,82.6,82.6,0,0,1,479,44.33q17-7.91,39.05-7.91t39.05,7.91A82.6,82.6,0,0,1,585.58,65.7,92.81,92.81,0,0,1,603,97.09a120.18,120.18,0,0,1,5.93,38,120.18,120.18,0,0,1-5.93,38,92.81,92.81,0,0,1-17.39,31.39,81.19,81.19,0,0,1-28.43,21.24q-17,7.78-39.05,7.78T479,225.7a81.19,81.19,0,0,1-28.43-21.24,92.81,92.81,0,0,1-17.39-31.39,120.18,120.18,0,0,1-5.93-38h0Zm5.52,0A118.86,118.86,0,0,0,439,172.54a87.51,87.51,0,0,0,16.84,29.55,76.11,76.11,0,0,0,26.63,19.39q15.73,7,35.6,7t35.6-7a76.11,76.11,0,0,0,26.63-19.39,87.51,87.51,0,0,0,16.84-29.55,116.09,116.09,0,0,0,0-74.92,87.51,87.51,0,0,0-16.84-29.55A76.11,76.11,0,0,0,553.7,48.68q-15.73-7-35.6-7t-35.6,7a76.11,76.11,0,0,0-26.63,19.39A87.51,87.51,0,0,0,439,97.62a118.86,118.86,0,0,0-6.21,37.46h0ZM660,35.6V232.67h5.52V42.5H666L800.72,232.67H809V35.6h-5.52V225.77h-0.55L668.24,35.6H660Z" transform="translate(-27.55 -27.03)"/></g></g></svg>