<svg id="Layer_1" data-name="Layer 1" xmlns="http://www.w3.org/2000/svg" xmlns:xlink="http://www.w3.org/1999/xlink" viewBox="0 0 183.86 206.97"><defs><style>.cls-1{fill:url(#linear-gradient);}</style><linearGradient id="linear-gradient" x1="346" y1="256.86" x2="345.18" y2="256.26" gradientTransform="matrix(183.86, 0, 0, -206.97, -63425.02, 53223.48)" gradientUnits="userSpaceOnUse"><stop offset="0" stop-color="#ff3671"/><stop offset="1" stop-color="#60d7ff"/></linearGradient></defs><title>neon-logo</title><g id="Page-1"><g id="N-_-N-Copy-_-EON" data-name="N-+-N-Copy-+-EON"><g id="N-_-N-Copy" data-name="N-+-N-Copy"><path id="N" class="cls-1" d="M183.07,97.94V234h-8.64L33.89,35.57H33.31V234H27.55V28.37h8.64L176.74,226.8h0.58V97.94h5.76Zm-7.47-18.3c-16.33-14.24-27-23.83-27-35.59a16.91,16.91,0,0,1,17.28-17A19,19,0,0,1,180,33.53,19,19,0,0,1,194.14,27a16.91,16.91,0,0,1,17.28,17c0,11.76-10.68,21.35-27,35.59L180,84Z" transform="translate(-27.55 -27.03)"/><path id="N-Copy" class="cls-1" d="M183.07,97.94V234h-8.64L33.89,35.57H33.31V234H27.55V28.37h8.64L176.74,226.8h0.58V97.94h5.76Zm-7.47-18.3c-16.33-14.24-27-23.83-27-35.59a16.91,16.91,0,0,1,17.28-17A19,19,0,0,1,180,33.53,19,19,0,0,1,194.14,27a16.91,16.91,0,0,1,17.28,17c0,11.76-10.68,21.35-27,35.59L180,84Z" transform="translate(-27.55 -27.03)"/></g></g></g></svg>